<?xml version="1.0" encoding="UTF-8"?>
<!DOCTYPE svg PUBLIC "-//W3C//DTD SVG 1.1//EN" "http://www.w3.org/Graphics/SVG/1.1/DTD/svg11.dtd">
<svg version="1.1" xmlns="http://www.w3.org/2000/svg" xmlns:xlink="http://www.w3.org/1999/xlink" x="0" y="0" width="800" height="370" viewBox="0, 0, 800, 370">
  <g id="Background">
    <rect x="0" y="0" width="800" height="370" fill="#FFFFFF"/>
  </g>
  <g id="Bild">
    <path d="M521.149,168.541 L521.149,153.527 L256.02,153.223 L255.42,60.303" fill-opacity="0" stroke="#C4A800" stroke-width="2"/>
    <path d="M115.765,224.844 L115.445,148.303 L87.42,148.303 L87.42,60.303" fill-opacity="0" stroke="#C4A800" stroke-width="2"/>
    <path d="M702.161,213.28 C702.161,213.28 777.232,213.28 777.232,213.28 C777.232,213.28 777.232,134.456 777.232,134.456" fill-opacity="0" stroke="#000000" stroke-width="4"/>
    <path d="M702.161,325.887 C702.161,325.887 777.232,325.887 777.232,325.887 C777.232,325.887 777.232,213.28 777.232,213.28" fill-opacity="0" stroke="#000000" stroke-width="4"/>
    <path d="M627.09,213.28 L540.497,213.28" fill-opacity="0" stroke="#000000" stroke-width="4"/>
    <path d="M627.09,325.887 L540.497,325.887" fill-opacity="0" stroke="#000000" stroke-width="4"/>
    <g>
      <path d="M502.962,224.541 L502.962,202.02 L540.497,224.541 L540.497,202.02 L502.962,224.541 z" fill-opacity="0" stroke="#000000" stroke-width="1"/>
      <path d="M529.237,190.759 L521.73,190.759 L521.73,198.266 L521.73,213.28 C521.73,213.28 521.73,190.759 521.73,190.759 C521.73,190.759 514.223,190.759 514.223,190.759 C514.223,190.759 514.223,168.238 514.223,168.238 C514.223,168.238 529.237,168.238 529.237,168.238 C529.237,168.238 529.237,190.759 529.237,190.759 z" fill-opacity="0" stroke="#000000" stroke-width="1"/>
    </g>
    <path d="M476.948,269.584 L383.109,269.584" fill-opacity="0" stroke="#000000" stroke-width="4"/>
    <path d="M247.981,232.048 L360.588,232.048 C373.026,232.048 383.109,246.453 383.109,264.222 L383.109,274.946 C383.109,292.715 373.026,307.119 360.588,307.119 L247.981,307.119 C235.543,307.119 225.46,292.715 225.46,274.946 L225.46,264.222 C225.46,246.453 235.543,232.048 247.981,232.048 z" fill-opacity="0" stroke="#000000" stroke-width="1.5"/>
    <path d="M503.375,213.28 C503.375,213.28 476.948,213.28 476.948,213.28 C476.948,213.28 476.948,325.887 476.948,325.887 C476.948,325.887 503.635,325.887 503.635,325.887" fill-opacity="0" stroke="#000000" stroke-width="4"/>
    <path d="M7.754,269.584 C7.754,269.584 41.275,269.584 41.275,269.584" fill-opacity="0" stroke="#000000" stroke-width="4"/>
    <path d="M135.114,269.584 L225.46,269.584" fill-opacity="0" stroke="#000000" stroke-width="4"/>
    <path d="M398.123,250.816 L398.123,288.352" fill-opacity="0" stroke="#000000" stroke-width="1"/>
    <path d="M394.37,250.816 L394.37,288.352" fill-opacity="0" stroke="#000000" stroke-width="1"/>
    <path d="M214.199,250.816 L214.199,288.352" fill-opacity="0" stroke="#000000" stroke-width="1"/>
    <path d="M210.445,250.816 L210.445,288.352" fill-opacity="0" stroke="#000000" stroke-width="1"/>
    <path d="M7.754,250.816 L7.754,288.352" fill-opacity="0" stroke="#000000" stroke-width="1"/>
    <path d="M4,250.816 L4,288.352" fill-opacity="0" stroke="#000000" stroke-width="1"/>
    <path d="M169.156,245.186 L169.156,267.707" fill-opacity="0" stroke="#000000" stroke-width="1"/>
    <g>
      <g>
        <path d="M97.578,280.844 L97.578,258.323 L135.114,280.844 L135.114,258.323 L97.578,280.844 z" fill="#FFFFFF"/>
        <path d="M97.578,280.844 L97.578,258.323 L135.114,280.844 L135.114,258.323 L97.578,280.844 z" fill-opacity="0" stroke="#000000" stroke-width="1"/>
      </g>
      <path d="M123.853,247.062 L116.346,247.062 L116.346,254.569 L116.346,269.584 C116.346,269.584 116.346,247.062 116.346,247.062 C116.346,247.062 108.839,247.062 108.839,247.062 C108.839,247.062 108.839,224.541 108.839,224.541 C108.839,224.541 123.853,224.541 123.853,224.541 C123.853,224.541 123.853,247.062 123.853,247.062 z" fill-opacity="0" stroke="#000000" stroke-width="1"/>
    </g>
    <path d="M758.464,130.702 L796,130.702" fill-opacity="0" stroke="#000000" stroke-width="1"/>
    <path d="M758.464,134.456 L796,134.456" fill-opacity="0" stroke="#000000" stroke-width="1"/>
    <g>
      <g>
        <path d="M41.275,280.844 L41.275,258.323 L78.81,280.844 L78.81,258.323 L41.275,280.844 z" fill="#FFFFFF"/>
        <path d="M41.275,280.844 L41.275,258.323 L78.81,280.844 L78.81,258.323 L41.275,280.844 z" fill-opacity="0" stroke="#000000" stroke-width="1"/>
      </g>
      <path d="M67.55,247.062 L60.042,247.062 L60.042,254.569 L60.042,269.584 C60.042,269.584 60.042,247.062 60.042,247.062 C60.042,247.062 52.535,247.062 52.535,247.062 z" fill-opacity="0" stroke="#000000" stroke-width="1"/>
    </g>
    <path d="M78.81,269.584 C78.81,269.584 97.578,269.584 97.578,269.584" fill-opacity="0" stroke="#000000" stroke-width="4"/>
    <path d="M690.64,307.119 L740.592,307.119 L740.592,20.243 L660,20.243" fill-opacity="0" stroke="#C4A800" stroke-width="2"/>
    <path d="M675.625,192.636 L724.902,192.636 L724.902,60.303 L660,60.303" fill-opacity="0" stroke="#C4A800" stroke-width="2"/>
    <path d="M583.794,153.224 L583.794,120.38 L502.132,120.38 L502.962,20.243 L470,20.243" fill-opacity="0" stroke="#009916" stroke-width="2"/>
    <path d="M583.794,265.83 L583.794,245.186 L555.512,245.186 L555.512,130.702 L483.506,130.702 L483.506,60.303 L470,60.303" fill-opacity="0" stroke="#009916" stroke-width="2"/>
    <path d="M168.576,207.953 L168.576,101.497 L339.42,100.303" fill-opacity="0" stroke="#009916" stroke-width="2"/>
    <path d="M521.149,280.844 L521.149,251.119 L494.874,251.119 L494.874,168.541 L187.287,168.238 L187.287,60.303" fill-opacity="0" stroke="#C4A800" stroke-width="2"/>
    <g>
      <path d="M340,4 L470,4 L470,36 L340,36 L340,4 z" fill="#EAEAEA"/>
      <path d="M340,4 L470,4 L470,36 L340,36 L340,4 z" fill-opacity="0" stroke="#000000" stroke-width="1"/>
    </g>
    <g>
      <g>
        <path d="M664.626,363.423 C643.895,363.423 627.09,346.617 627.09,325.887 C627.09,305.157 643.895,288.351 664.626,288.351 C685.356,288.351 702.161,305.157 702.161,325.887 C702.161,346.617 685.356,363.423 664.626,363.423 z" fill="#FFFFFF"/>
        <path d="M664.626,363.423 C643.895,363.423 627.09,346.617 627.09,325.887 C627.09,305.157 643.895,288.351 664.626,288.351 C685.356,288.351 702.161,305.157 702.161,325.887 C702.161,346.617 685.356,363.423 664.626,363.423 z" fill-opacity="0" stroke="#000000" stroke-width="1"/>
      </g>
      <path d="M671.625,327.496 C671.672,321.088 668.407,317.483 661.849,317.667 C655.538,317.844 652.321,321.061 652.321,327.496 C652.321,333.93 655.538,337.148 661.751,337.148 C671.611,337.148 678.045,333.93 678.045,327.496 C678.045,317.844 671.574,314.626 662.303,314.626 C645.527,314.626 645.858,327.496 645.858,327.496" fill-opacity="0" stroke="#000000" stroke-width="1"/>
      <path d="M632.72,347.47 L696.531,339.963" fill-opacity="0" stroke="#000000" stroke-width="1"/>
      <path d="M638.351,300.551 L698.408,311.811" fill-opacity="0" stroke="#000000" stroke-width="1"/>
    </g>
    <g>
      <g>
        <path d="M664.626,250.816 C643.895,250.816 627.09,234.011 627.09,213.28 C627.09,192.55 643.895,175.745 664.626,175.745 C685.356,175.745 702.161,192.55 702.161,213.28 C702.161,234.011 685.356,250.816 664.626,250.816 z" fill="#FFFFFF"/>
        <path d="M664.626,250.816 C643.895,250.816 627.09,234.011 627.09,213.28 C627.09,192.55 643.895,175.745 664.626,175.745 C685.356,175.745 702.161,192.55 702.161,213.28 C702.161,234.011 685.356,250.816 664.626,250.816 z" fill-opacity="0" stroke="#000000" stroke-width="1"/>
      </g>
      <path d="M671.625,214.889 C671.672,208.481 668.407,204.876 661.849,205.06 C655.538,205.237 652.321,208.454 652.321,214.889 C652.321,221.324 655.538,224.541 661.751,224.541 C671.611,224.541 678.045,221.324 678.045,214.889 C678.045,205.237 671.574,202.02 662.303,202.02 C645.527,202.02 645.858,214.889 645.858,214.889" fill-opacity="0" stroke="#000000" stroke-width="1"/>
      <path d="M632.72,234.863 L696.531,227.356" fill-opacity="0" stroke="#000000" stroke-width="1"/>
      <path d="M638.351,187.944 L698.408,199.205" fill-opacity="0" stroke="#000000" stroke-width="1"/>
    </g>
    <g>
      <path d="M340,44 L470,44 L470,76 L340,76 L340,44 z" fill="#EAEAEA"/>
      <path d="M340,44 L470,44 L470,76 L340,76 L340,44 z" fill-opacity="0" stroke="#000000" stroke-width="1"/>
    </g>
    <g>
      <path d="M340,84 L470,84 L470,116 L340,116 L340,84 z" fill="#EAEAEA"/>
      <path d="M340,84 L470,84 L470,116 L340,116 L340,84 z" fill-opacity="0" stroke="#000000" stroke-width="1"/>
    </g>
    <g>
      <path d="M600,4 L660,4 L660,36 L600,36 L600,4 z" fill="#EAEAEA"/>
      <path d="M600,4 L660,4 L660,36 L600,36 L600,4 z" fill-opacity="0" stroke="#000000" stroke-width="1"/>
    </g>
    <g>
      <path d="M600,44 L660,44 L660,76 L600,76 L600,44 z" fill="#EAEAEA"/>
      <path d="M600,44 L660,44 L660,76 L600,76 L600,44 z" fill-opacity="0" stroke="#000000" stroke-width="1"/>
    </g>
    <g>
      <path d="M220,28 L290,28 L290,60 L220,60 L220,28 z" fill="#EAEAEA"/>
      <path d="M220,28 L290,28 L290,60 L220,60 L220,28 z" fill-opacity="0" stroke="#000000" stroke-width="1"/>
    </g>
    <g>
      <path d="M130,28 L200,28 L200,60 L130,60 L130,28 z" fill="#EAEAEA"/>
      <path d="M130,28 L200,28 L200,60 L130,60 L130,28 z" fill-opacity="0" stroke="#000000" stroke-width="1"/>
    </g>
    <g>
      <path d="M40,28 L110,28 L110,60 L40,60 L40,28 z" fill="#EAEAEA"/>
      <path d="M40,28 L110,28 L110,60 L40,60 L40,28 z" fill-opacity="0" stroke="#000000" stroke-width="1"/>
    </g>
    <g>
      <path d="M583.794,190.759 L583.794,213.28" fill-opacity="0" stroke="#000000" stroke-width="1"/>
      <g>
        <path d="M583.794,190.759 C573.429,190.759 565.026,182.356 565.026,171.991 C565.026,161.626 573.429,153.223 583.794,153.223 C594.159,153.223 602.561,161.626 602.561,171.991 C602.561,182.356 594.159,190.759 583.794,190.759 z" fill-opacity="0" stroke="#000000" stroke-width="1"/>
        <path d="M572.533,171.991 L595.054,171.991" fill-opacity="0" stroke="#000000" stroke-width="1"/>
        <path d="M572.533,164.484 C572.533,164.484 583.794,183.252 583.794,183.252 C583.794,183.252 595.054,164.484 595.054,164.484" fill-opacity="0" stroke="#000000" stroke-width="1"/>
      </g>
    </g>
    <g>
      <path d="M169.156,245.186 C158.791,245.186 150.389,236.783 150.389,226.418 C150.389,216.053 158.791,207.65 169.156,207.65 C179.522,207.65 187.924,216.053 187.924,226.418 C187.924,236.783 179.522,245.186 169.156,245.186 z" fill-opacity="0" stroke="#000000" stroke-width="1"/>
      <path d="M157.896,226.418 L180.417,226.418" fill-opacity="0" stroke="#000000" stroke-width="1"/>
      <path d="M157.896,218.911 C157.896,218.911 169.156,237.679 169.156,237.679 C169.156,237.679 180.417,218.911 180.417,218.911" fill-opacity="0" stroke="#000000" stroke-width="1"/>
    </g>
    <text transform="matrix(1, 0, 0, 1, 521.73, 226.418)">
      <tspan x="-7.002" y="3.5" font-family="HelveticaNeue" font-size="12" fill="#000000">V1</tspan>
    </text>
    <text transform="matrix(1, 0, 0, 1, 521.73, 339.5)">
      <tspan x="-7.002" y="3.5" font-family="HelveticaNeue" font-size="12" fill="#000000">V2</tspan>
    </text>
    <g>
      <path d="M502.962,337.148 L502.962,314.626 L540.497,337.148 L540.497,314.626 L502.962,337.148 z" fill-opacity="0" stroke="#000000" stroke-width="1"/>
      <path d="M529.237,303.366 L521.73,303.366 L521.73,310.873 L521.73,325.887 C521.73,325.887 521.73,303.366 521.73,303.366 C521.73,303.366 514.223,303.366 514.223,303.366 C514.223,303.366 514.223,280.844 514.223,280.844 C514.223,280.844 529.237,280.844 529.237,280.844 C529.237,280.844 529.237,303.366 529.237,303.366 z" fill-opacity="0" stroke="#000000" stroke-width="1"/>
    </g>
    <g>
      <path d="M583.794,303.366 L583.794,325.887" fill-opacity="0" stroke="#000000" stroke-width="1"/>
      <g>
        <path d="M583.794,303.366 C573.429,303.366 565.026,294.963 565.026,284.598 C565.026,274.233 573.429,265.83 583.794,265.83 C594.159,265.83 602.561,274.233 602.561,284.598 C602.561,294.963 594.159,303.366 583.794,303.366 z" fill-opacity="0" stroke="#000000" stroke-width="1"/>
        <path d="M572.533,284.598 L595.054,284.598" fill-opacity="0" stroke="#000000" stroke-width="1"/>
        <path d="M572.533,277.091 C572.533,277.091 583.794,295.859 583.794,295.859 C583.794,295.859 595.054,277.091 595.054,277.091" fill-opacity="0" stroke="#000000" stroke-width="1"/>
      </g>
    </g>
    <text transform="matrix(1, 0, 0, 1, 116.346, 283.5)">
      <tspan x="-7.002" y="3.5" font-family="HelveticaNeue" font-size="12" fill="#000000">V3</tspan>
    </text>
    <text transform="matrix(1, 0, 0, 1, 605, 149.5)">
      <tspan x="-7.224" y="3.5" font-family="HelveticaNeue" font-size="12" fill="#000000">P1</tspan>
    </text>
    <text transform="matrix(1, 0, 0, 1, 605, 262.084)">
      <tspan x="-7.224" y="3.5" font-family="HelveticaNeue" font-size="12" fill="#000000">P2</tspan>
    </text>
    <text transform="matrix(1, 0, 0, 1, 190.776, 205.78)">
      <tspan x="-7.224" y="3.5" font-family="HelveticaNeue" font-size="12" fill="#000000">P3</tspan>
    </text>
  </g>
  <g id="Text">
    <g>
      <text transform="matrix(1, 0, 0, 1, 75, 44)">
        <tspan x="-23.52" y="4" font-family="HelveticaNeue" font-size="14" fill="#000000">@S03@</tspan>
      </text>
      <text transform="matrix(1, 0, 0, 1, 165, 44)">
        <tspan x="-23.52" y="4" font-family="HelveticaNeue" font-size="14" fill="#000000">@S02@</tspan>
      </text>
      <text transform="matrix(1, 0, 0, 1, 255, 44)">
        <tspan x="-23.52" y="4" font-family="HelveticaNeue" font-size="14" fill="#000000">@S01@</tspan>
      </text>
      <text transform="matrix(1, 0, 0, 1, 630, 20)">
        <tspan x="-23.52" y="4" font-family="HelveticaNeue" font-size="14" fill="#000000">@S04@</tspan>
      </text>
      <text transform="matrix(1, 0, 0, 1, 630, 60)">
        <tspan x="-23.52" y="4" font-family="HelveticaNeue" font-size="14" fill="#000000">@S05@</tspan>
      </text>
      <text transform="matrix(1, 0, 0, 1, 405, 20)">
        <tspan x="-61" y="6" font-family="HelveticaNeue" font-size="18" fill="#000000">@P01@</tspan>
      </text>
      <text transform="matrix(1, 0, 0, 1, 405, 60)">
        <tspan x="-61" y="6" font-family="HelveticaNeue" font-size="18" fill="#000000">@P02@</tspan>
      </text>
      <text transform="matrix(1, 0, 0, 1, 405, 100)">
        <tspan x="-61" y="6" font-family="HelveticaNeue" font-size="18" fill="#000000">@P03@</tspan>
      </text>
    </g>
  </g>
</svg>
