<?xml version="1.0" encoding="UTF-8"?>
<!DOCTYPE svg PUBLIC "-//W3C//DTD SVG 1.1//EN" "http://www.w3.org/Graphics/SVG/1.1/DTD/svg11.dtd">
<svg version="1.1" xmlns="http://www.w3.org/2000/svg" xmlns:xlink="http://www.w3.org/1999/xlink" x="0" y="0" width="530" height="400" viewBox="0, 0, 530, 400">
  <g id="Background">
    <rect x="0" y="0" width="530" height="400" fill="#FFFFFF"/>
  </g>
  <g id="Sketch">
    <path d="M20.969,20.969 L510.969,20.969" fill-opacity="0" stroke="#A50000" stroke-width="4" id="path2987"/>
    <path d="M285.969,20.969 L285.969,45.969" fill-opacity="0" stroke="#A50000" stroke-width="4" id="path3757"/>
    <path d="M285.969,50.969 L50.969,145.969" fill-opacity="0" stroke="#A50000" stroke-width="2" id="path3769"/>
    <g id="rect3771">
      <path d="M160.969,360.969 L410.969,360.969 L410.969,380.969 L160.969,380.969 z" fill="#A50000"/>
      <path d="M160.969,360.969 L410.969,360.969 L410.969,380.969 L160.969,380.969 z" fill-opacity="0" stroke="#000000" stroke-width="1.959"/>
    </g>
    <path d="M20.969,50.969 L285.969,50.969" fill-opacity="0" stroke="#000000" stroke-width="1" stroke-dasharray="2.938,2.938" id="path3775"/>
    <g id="path3779">
      <path d="M60.228,58.904 C64.231,85.677 72.085,108.149 83.98,124.487" fill-opacity="0" stroke="#000000" stroke-width="1"/>
      <path d="M60.228,58.904 L63.473,60.476 L59.412,52.959 L57.529,61.293 z" fill="#000000" fill-opacity="1" stroke="#000000" stroke-width="1" stroke-opacity="1"/>
      <path d="M83.98,124.487 L80.385,124.761 L87.678,129.212 L85.11,121.063 z" fill="#000000" fill-opacity="1" stroke="#000000" stroke-width="1" stroke-opacity="1"/>
    </g>
    <path d="M510.969,50.969 L285.969,50.969" fill-opacity="0" stroke="#000000" stroke-width="1" stroke-dasharray="2.938,2.938" id="path4611"/>
    <g id="path5173">
      <path d="M285.969,66.845 L285.969,350.093" fill-opacity="0" stroke="#000000" stroke-width="0.979"/>
      <path d="M285.969,66.845 L288.907,68.803 L285.969,60.969 L283.031,68.803 z" fill="#000000" fill-opacity="1" stroke="#000000" stroke-width="0.979" stroke-opacity="1"/>
      <path d="M285.969,350.093 L283.031,348.134 L285.969,355.969 L288.907,348.134 z" fill="#000000" fill-opacity="1" stroke="#000000" stroke-width="0.979" stroke-opacity="1"/>
    </g>
    <path d="M286.969,49.469 L293.187,30.086" fill-opacity="0" stroke="#000000" stroke-width="0.973" stroke-dasharray="2.873,2.873" id="path6873"/>
    <path d="M285.783,49.333 L487.22,121.74" fill-opacity="0" stroke="#A50000" stroke-width="1.916" id="path3765"/>
    <path d="M385.853,63.684 L376.525,92.76" fill-opacity="0" stroke="#000000" stroke-width="0.958" stroke-dasharray="2.873,2.873" id="path6871"/>
    <g id="path6865">
      <path d="M397.212,83.982 L394.103,93.674 L384.947,90.383 L380.283,104.92 L366.549,99.984 L371.213,85.446 L362.056,82.155 L365.166,72.463 z" fill="#A50000"/>
      <path d="M397.212,83.982 L394.103,93.674 L384.947,90.383 L380.283,104.92 L366.549,99.984 L371.213,85.446 L362.056,82.155 L365.166,72.463 z" fill-opacity="0" stroke="#000000" stroke-width="0.958"/>
    </g>
    <g id="path6867">
      <path d="M298.593,37.621 L376.603,65.758" fill-opacity="0" stroke="#000000" stroke-width="0.958"/>
      <path d="M298.593,37.621 L301.37,35.568 L293.187,35.672 L299.42,40.974 z" fill="#000000" fill-opacity="1" stroke="#000000" stroke-width="0.958" stroke-opacity="1"/>
      <path d="M376.603,65.758 L373.827,67.811 L382.009,67.708 L375.776,62.405 z" fill="#000000" fill-opacity="1" stroke="#000000" stroke-width="0.958" stroke-opacity="1"/>
    </g>
    <g id="path4609">
      <path d="M290.744,49.649 C290.744,52.431 288.613,54.687 285.984,54.687 C283.356,54.687 281.225,52.431 281.225,49.649 C281.225,46.867 283.356,44.611 285.984,44.611 C288.613,44.611 290.744,46.867 290.744,49.649 z" fill="#800000"/>
      <path d="M290.744,49.649 C290.744,52.431 288.613,54.687 285.984,54.687 C283.356,54.687 281.225,52.431 281.225,49.649 C281.225,46.867 283.356,44.611 285.984,44.611 C288.613,44.611 290.744,46.867 290.744,49.649 z" fill-opacity="0" stroke="#A50000" stroke-width="1.904"/>
    </g>
    <path d="M301,316.938 L391.486,316.938 L391.486,322.089 L301,322.089 z" fill="#008080" id="rect3047"/>
    <g id="path3841">
      <path d="M354,330.813 L354,351.062" fill-opacity="0" stroke="#000000" stroke-width="0.979"/>
      <path d="M354,330.813 L356.938,332.772 L354,324.938 L351.062,332.772 z" fill="#000000" fill-opacity="1" stroke="#000000" stroke-width="0.979" stroke-opacity="1"/>
      <path d="M354,351.062 L351.062,349.103 L354,356.938 L356.938,349.103 z" fill="#000000" fill-opacity="1" stroke="#000000" stroke-width="0.979" stroke-opacity="1"/>
    </g>
    <g id="path4601">
      <path d="M500.647,58.952 C498.974,76.565 491.057,98.054 482.192,112.042" fill-opacity="0" stroke="#000000" stroke-width="1"/>
      <path d="M500.647,58.952 L503.535,61.11 L500.969,52.961 L497.544,60.788 z" fill="#000000" fill-opacity="1" stroke="#000000" stroke-width="1" stroke-opacity="1"/>
      <path d="M482.192,112.042 L480.859,108.692 L478.783,116.98 L485.797,112.1 z" fill="#000000" fill-opacity="1" stroke="#000000" stroke-width="1" stroke-opacity="1"/>
    </g>
    <g id="path4601">
      <path d="M398.7,105.968 C386.343,120.136 351.492,107.452 351.177,88.675" fill-opacity="0" stroke="#000000" stroke-width="1"/>
      <path d="M398.7,105.968 L400.285,109.206 L401.721,100.784 L395.101,106.185 z" fill="#000000" fill-opacity="1" stroke="#000000" stroke-width="1" stroke-opacity="1"/>
      <path d="M351.177,88.675 L353.788,91.163 L352.212,82.765 L347.878,90.128 z" fill="#000000" fill-opacity="1" stroke="#000000" stroke-width="1" stroke-opacity="1"/>
    </g>
  </g>
  <g id="Text">
    <text transform="matrix(1, 0, 0, 1, 96.521, 68.438)" id="tspan3017">
      <tspan x="-19.521" y="3.5" font-family="ArialMT" font-size="12" fill="#000000">@A1@</tspan>
    </text>
    <text transform="matrix(1, 0, 0, 1, 389.539, 68.438)" id="tspan3037">
      <tspan x="-19.521" y="3.5" font-family="ArialMT" font-size="12" fill="#000000">@A2@</tspan>
    </text>
    <text transform="matrix(1, 0, 0, 1, 345.515, 37.438)" id="tspan3041">
      <tspan x="-16.515" y="3.5" font-family="ArialMT" font-size="12" fill="#000000">@D@</tspan>
    </text>
    <text transform="matrix(1, 0, 0, 1, 313.852, 186.438)" id="tspan3045">
      <tspan x="-19.852" y="3.5" font-family="ArialMT" font-size="12" fill="#000000">@H1@</tspan>
    </text>
    <text transform="matrix(1, 0, 0, 1, 381.852, 340.438)" id="tspan3845">
      <tspan x="-19.852" y="3.5" font-family="ArialMT" font-size="12" fill="#000000">@H2@</tspan>
    </text>
    <text transform="matrix(1, 0, 0, 1, 357.49, 126.364)" id="tspan3037">
      <tspan x="-19.521" y="3.5" font-family="ArialMT" font-size="12" fill="#000000">@A3@</tspan>
    </text>
  </g>
</svg>
