<?xml version="1.0" encoding="UTF-8" standalone="no"?>
<!DOCTYPE svg PUBLIC "-//W3C//DTD SVG 1.1//EN" "http://www.w3.org/Graphics/SVG/1.1/DTD/svg11.dtd">
<svg width="100%" height="100%" viewBox="0 0 800 400" version="1.1" xmlns="http://www.w3.org/2000/svg" xmlns:xlink="http://www.w3.org/1999/xlink" xml:space="preserve" xmlns:serif="http://www.serif.com/" style="fill-rule:evenodd;clip-rule:evenodd;">
    <g id="Background" transform="matrix(1,0,0,1.08108,0,0)">
        <rect x="0" y="0" width="800" height="370" style="fill:white;"/>
    </g>
    <g id="Bild">
        <g transform="matrix(1,0,0,1,-34,-80.702)">
            <path d="M630,229.999L540.497,229.999" style="fill-opacity:0;fill-rule:nonzero;"/>
            <rect x="540.497" y="227.999" width="89.503" height="4"/>
        </g>
        <g transform="matrix(1,0,0,1,-34,19.298)">
            <path d="M630,330L540.497,330" style="fill-opacity:0;fill-rule:nonzero;"/>
            <rect x="540.497" y="328" width="89.503" height="4"/>
        </g>
        <g transform="matrix(1,0,0,1,6,-19.8308)">
            <path d="M436.948,269.584L383.109,269.584" style="fill:rgb(80,217,38);fill-rule:nonzero;"/>
            <path d="M436.948,271.583L383.109,271.584L383.109,267.584L436.948,267.583L436.948,271.583Z"/>
        </g>
        <g transform="matrix(1,0,0,1,-34,19.298)">
            <path d="M503.635,130.172L477.208,130.172L476.948,330.739L502.591,330.739" style="fill-opacity:0;fill-rule:nonzero;"/>
            <path d="M503.635,132.172L479.205,132.172L478.951,328.739L502.591,328.739L502.591,332.739L474.945,332.739L475.211,128.172L503.635,128.172L503.635,132.172Z"/>
        </g>
        <g transform="matrix(1,0,0,1,6,-19.8308)">
            <path d="M7.754,269.584L41.275,269.584" style="fill-opacity:0;fill-rule:nonzero;"/>
            <rect x="7.754" y="267.584" width="33.521" height="4"/>
        </g>
        <g transform="matrix(1,0,0,1,6,-19.8313)">
            <path d="M135.114,269.584L225.46,269.584" style="fill-opacity:0;fill-rule:nonzero;"/>
            <rect x="135.114" y="267.584" width="90.346" height="4"/>
        </g>
        <g transform="matrix(1,0,0,1,4.739,-19.8308)">
            <path d="M398.123,250.816L398.123,288.352" style="fill-opacity:0;fill-rule:nonzero;stroke:black;stroke-width:1px;"/>
        </g>
        <g transform="matrix(1,0,0,1,4.739,-19.8308)">
            <path d="M394.37,250.816L394.37,288.352" style="fill-opacity:0;fill-rule:nonzero;stroke:black;stroke-width:1px;"/>
        </g>
        <g transform="matrix(1,0,0,1,7.261,-19.8308)">
            <path d="M214.199,250.816L214.199,288.352" style="fill-opacity:0;fill-rule:nonzero;stroke:black;stroke-width:1px;"/>
        </g>
        <g transform="matrix(1,0,0,1,7.261,-19.8308)">
            <path d="M210.445,250.816L210.445,288.352" style="fill-opacity:0;fill-rule:nonzero;stroke:black;stroke-width:1px;"/>
        </g>
        <g transform="matrix(1,0,0,1,6,-19.8308)">
            <path d="M7.754,250.816L7.754,288.352" style="fill-opacity:0;fill-rule:nonzero;stroke:black;stroke-width:1px;"/>
        </g>
        <g transform="matrix(1,0,0,1,6,-19.8308)">
            <path d="M4,250.816L4,288.352" style="fill-opacity:0;fill-rule:nonzero;stroke:black;stroke-width:1px;"/>
        </g>
        <g transform="matrix(1,0,0,1,6,-17.9538)">
            <path d="M169.156,247.707L169.156,267.707" style="fill-opacity:0;fill-rule:nonzero;stroke:black;stroke-width:1px;"/>
        </g>
        <g transform="matrix(1,0,0,1,6,-75.4897)">
            <path d="M169.156,247.707L169.156,267.707" style="fill-opacity:0;fill-rule:nonzero;stroke:black;stroke-width:1px;"/>
        </g>
        <g transform="matrix(1,0,0,1,-4,-120.702)">
            <path d="M758.464,130.702L796,130.702" style="fill-opacity:0;fill-rule:nonzero;stroke:black;stroke-width:1px;"/>
        </g>
        <g transform="matrix(1,0,0,1,-4,-120.702)">
            <path d="M758.464,134.456L796,134.456" style="fill-opacity:0;fill-rule:nonzero;stroke:black;stroke-width:1px;"/>
        </g>
        <g transform="matrix(1,0,0,1,6,-19.8308)">
            <path d="M78.81,269.584L97.578,269.584" style="fill-opacity:0;fill-rule:nonzero;"/>
            <rect x="78.81" y="267.584" width="18.768" height="4"/>
        </g>
        <g transform="matrix(1,0,0,1,-36.722,-63.9825)">
            <path d="M583.793,193.28L583.793,213.28" style="fill-opacity:0;fill-rule:nonzero;stroke:black;stroke-width:1px;"/>
        </g>
        <g transform="matrix(1,0,0,1,-36.722,-121.519)">
            <path d="M583.793,193.28L583.793,213.28" style="fill-opacity:0;fill-rule:nonzero;stroke:black;stroke-width:1px;"/>
        </g>
        <g transform="matrix(1,0,0,1,52.2065,-103.982)">
            <path d="M593.794,159.743L583.793,159.743L583.793,213.28" style="fill-opacity:0;fill-rule:nonzero;stroke:black;stroke-width:1px;"/>
        </g>
        <g transform="matrix(1,0,0,1,-36.7225,22.728)">
            <path d="M583.794,306.57L583.794,326.57" style="fill-opacity:0;fill-rule:nonzero;stroke:black;stroke-width:1px;"/>
        </g>
        <g transform="matrix(1,0,0,1,-36.7225,-34.808)">
            <path d="M583.794,306.57L583.794,326.57" style="fill-opacity:0;fill-rule:nonzero;stroke:black;stroke-width:1px;"/>
        </g>
        <g transform="matrix(1,0,0,1,52.206,-17.272)">
            <path d="M593.794,273.034L583.794,273.034L583.794,326.57" style="fill-opacity:0;fill-rule:nonzero;stroke:black;stroke-width:1px;"/>
        </g>
        <g id="P01BOX" transform="matrix(1,0,0,1,142.071,35.7615)">
            <rect id="P00BG" x="340" y="4" width="130" height="32" style="fill:rgb(255,0,0);fill-rule:nonzero;"/>
            <rect x="340" y="4" width="130" height="32" style="fill-opacity:0;fill-rule:nonzero;stroke:black;stroke-width:1px;"/>
        </g>
        <g id="P01BOX1" serif:id="P01BOX" transform="matrix(1,0,0,1,142.071,195.762)">
            <rect id="P01BG" x="340" y="44" width="130" height="32" style="fill:rgb(255,0,0);fill-rule:nonzero;"/>
            <rect x="340" y="44" width="130" height="32" style="fill-opacity:0;fill-rule:nonzero;stroke:black;stroke-width:1px;"/>
        </g>
        <g id="P02BOX" transform="matrix(1,0,0,1,-229.844,56.2173)">
            <rect id="P02BG" x="340" y="84" width="130" height="32" style="fill:rgb(255,0,0);fill-rule:nonzero;"/>
            <rect x="340" y="84" width="130" height="32" style="fill-opacity:0;fill-rule:nonzero;stroke:black;stroke-width:1px;"/>
        </g>
        <g id="S00BOX" transform="matrix(1,0,0,1.5,18.8726,24.7004)">
            <g id="S00BG" transform="matrix(1,0,0,1,77.1274,-39.2926)">
                <rect x="550" y="44" width="110" height="32" style="fill:rgb(230,230,230);fill-rule:nonzero;"/>
            </g>
            <g transform="matrix(1,0,0,1,77.1274,-39.2926)">
                <rect x="550" y="44" width="110" height="32" style="fill-opacity:0;fill-rule:nonzero;stroke:black;stroke-width:0.78px;"/>
            </g>
        </g>
        <g id="S01BOX" transform="matrix(1,0,0,1.5,96,225.762)">
            <rect id="S01BG" x="550" y="4" width="110" height="32" style="fill:rgb(230,230,230);fill-rule:nonzero;"/>
            <rect x="550" y="4" width="110" height="32" style="fill-opacity:0;fill-rule:nonzero;stroke:black;stroke-width:0.78px;"/>
        </g>
        <g id="P1Gauge" transform="matrix(1,0,0,1,-36.7225,-61.4615)">
            <path id="P1GaugeBG" d="M583.794,190.759C573.429,190.759 565.026,182.356 565.026,171.991C565.026,161.626 573.429,153.223 583.794,153.223C594.159,153.223 602.561,161.626 602.561,171.991C602.561,182.356 594.159,190.759 583.794,190.759Z" style="fill:rgb(255,0,0);fill-rule:nonzero;"/>
            <path d="M583.794,190.759C573.429,190.759 565.026,182.356 565.026,171.991C565.026,161.626 573.429,153.223 583.794,153.223C594.159,153.223 602.561,161.626 602.561,171.991C602.561,182.356 594.159,190.759 583.794,190.759Z" style="fill:none;stroke:black;stroke-width:1px;"/>
            <path d="M572.533,171.991L595.054,171.991" style="fill-opacity:0;fill-rule:nonzero;stroke:black;stroke-width:1px;"/>
            <path d="M572.533,164.484L583.794,183.252L595.054,164.484" style="fill-opacity:0;fill-rule:nonzero;stroke:black;stroke-width:1px;"/>
        </g>
        <g id="P2Gauge" transform="matrix(1,0,0,1,-36.7225,25.932)">
            <path id="P2GaugeBG" d="M583.794,303.366C573.429,303.366 565.026,294.963 565.026,284.598C565.026,274.233 573.429,265.83 583.794,265.83C594.159,265.83 602.561,274.233 602.561,284.598C602.561,294.963 594.159,303.366 583.794,303.366Z" style="fill:rgb(255,0,0);fill-rule:nonzero;"/>
            <path d="M583.794,303.366C573.429,303.366 565.026,294.963 565.026,284.598C565.026,274.233 573.429,265.83 583.794,265.83C594.159,265.83 602.561,274.233 602.561,284.598C602.561,294.963 594.159,303.366 583.794,303.366Z" style="fill:none;stroke:black;stroke-width:1px;"/>
            <path d="M572.533,284.598L595.054,284.598" style="fill-opacity:0;fill-rule:nonzero;stroke:black;stroke-width:1px;"/>
            <path d="M572.533,277.091L583.794,295.859L595.054,277.091" style="fill-opacity:0;fill-rule:nonzero;stroke:black;stroke-width:1px;"/>
        </g>
        <g id="SYSGauge" transform="matrix(1,0,0,1,5.9995,-15.4327)">
            <path id="SYSGaugeBG" d="M169.156,245.186C158.791,245.186 150.389,236.783 150.389,226.418C150.389,216.053 158.791,207.65 169.156,207.65C179.522,207.65 187.924,216.053 187.924,226.418C187.924,236.783 179.522,245.186 169.156,245.186Z" style="fill:rgb(255,0,0);fill-rule:nonzero;"/>
            <path d="M169.156,245.186C158.791,245.186 150.389,236.783 150.389,226.418C150.389,216.053 158.791,207.65 169.156,207.65C179.522,207.65 187.924,216.053 187.924,226.418C187.924,236.783 179.522,245.186 169.156,245.186Z" style="fill:none;stroke:black;stroke-width:1px;"/>
            <path d="M157.896,226.418L180.417,226.418" style="fill-opacity:0;fill-rule:nonzero;stroke:black;stroke-width:1px;"/>
            <path d="M157.896,218.911L169.156,237.679L180.417,218.911" style="fill-opacity:0;fill-rule:nonzero;stroke:black;stroke-width:1px;"/>
        </g>
        <g transform="matrix(1,0,0,1,482.601,169.298)">
            <g>
                <text x="0px" y="0px" style="font-family:'HelveticaNeue', 'Helvetica Neue';font-size:12px;">V1</text>
            </g>
        </g>
        <g transform="matrix(1,0,0,1,480.728,369.866)">
            <g>
                <text x="0px" y="0px" style="font-family:'HelveticaNeue', 'Helvetica Neue';font-size:12px;">V2</text>
            </g>
        </g>
        <g transform="matrix(1,0,0,1,115.62,269.705)">
            <g>
                <text x="0px" y="0px" style="font-family:'HelveticaNeue', 'Helvetica Neue';font-size:12px;">V3</text>
            </g>
        </g>
        <g transform="matrix(1,0,0,1,560.023,90.3295)">
            <g>
                <text x="0px" y="0px" style="font-family:'HelveticaNeue', 'Helvetica Neue';font-size:12px;">P1</text>
            </g>
        </g>
        <g transform="matrix(1,0,0,1,558.367,290.33)">
            <g>
                <text x="0px" y="0px" style="font-family:'HelveticaNeue', 'Helvetica Neue';font-size:12px;">P2</text>
            </g>
        </g>
        <g transform="matrix(1,0,0,1,187.272,190.989)">
            <g>
                <text x="0px" y="0px" style="font-family:'HelveticaNeue', 'Helvetica Neue';font-size:12px;">SYS</text>
            </g>
        </g>
        <g transform="matrix(1,0,0,1,676.592,117.866)">
            <text x="0px" y="0px" style="font-family:'HelveticaNeue', 'Helvetica Neue';font-size:12px;">Pump 1</text>
        </g>
        <g transform="matrix(1,0,0,1,674.936,317.866)">
            <text x="0px" y="0px" style="font-family:'HelveticaNeue', 'Helvetica Neue';font-size:12px;">Pump 2</text>
        </g>
        <g id="P1Curve" transform="matrix(1.12575,0,0,0.582913,-68.4425,62.3018)">
            <rect x="507.17" y="144.391" width="88.83" height="10.293" style="fill:rgb(255,0,0);stroke:black;stroke-width:1.12px;stroke-linecap:round;stroke-linejoin:round;stroke-miterlimit:1.5;"/>
        </g>
        <g id="ExhaustCurve" transform="matrix(1.12575,0,0,0.582913,102.286,262.13)">
            <path d="M507.17,144.391L593.335,144.391L593.335,-188.42L507.17,-188.42L507.17,-198.714L593.335,-198.714L593.335,-426.094L598.665,-426.094L598.665,154.685L507.17,154.685L507.17,144.391Z" style="fill:rgb(230,230,230);stroke:black;stroke-width:1.12px;stroke-linecap:round;stroke-linejoin:round;stroke-miterlimit:1.5;"/>
        </g>
        <g id="SYSCurve2" transform="matrix(1.12575,0,0,0.582913,-434.659,162.586)">
            <rect x="507.17" y="144.391" width="88.83" height="10.293" style="fill:rgb(255,0,0);stroke:black;stroke-width:1.12px;stroke-linecap:round;stroke-linejoin:round;stroke-miterlimit:1.5;"/>
        </g>
        <g id="SYSCurve3" transform="matrix(0.288724,0,0,0.582913,-64.4626,162.585)">
            <rect x="507.17" y="144.391" width="88.83" height="10.293" style="fill:rgb(255,0,0);stroke:black;stroke-width:2.17px;stroke-linecap:round;stroke-linejoin:round;stroke-miterlimit:1.5;"/>
        </g>
        <g id="SYSCurve4" transform="matrix(0.413131,0,0,0.582913,-195.774,162.709)">
            <rect x="507.17" y="144.391" width="88.83" height="10.293" style="fill:rgb(255,0,0);stroke:black;stroke-width:1.98px;stroke-linecap:round;stroke-linejoin:round;stroke-miterlimit:1.5;"/>
        </g>
        <g id="P2Curve" transform="matrix(1.12575,0,0,0.582913,-69.6975,262.869)">
            <rect x="507.17" y="144.391" width="88.83" height="10.293" style="fill:rgb(255,0,0);stroke:black;stroke-width:1.12px;stroke-linecap:round;stroke-linejoin:round;stroke-miterlimit:1.5;"/>
        </g>
        <g id="SYSCurve1" transform="matrix(1.16081,0,0,0.690911,-168.798,111.395)">
            <path d="M524.417,204.596L475.43,204.596L475.43,195.912L524.417,195.912L524.417,50.765L549.992,50.765L549.992,59.449L529.586,59.449L529.586,341.059L549.092,341.059L549.092,349.743L524.417,349.743L524.417,204.596Z" style="fill:rgb(255,0,0);stroke:black;stroke-width:1.05px;stroke-linecap:round;stroke-linejoin:round;stroke-miterlimit:1.5;"/>
        </g>
        <g id="Valve1" transform="matrix(1,0,0,1,-33.327,-63.811)">
            <path id="Valve1BG" d="M502.962,224.541L502.962,202.02L540.497,224.541L540.497,202.02L502.962,224.541Z" style="fill:rgb(255,0,0);fill-rule:nonzero;"/>
            <path d="M502.962,224.541L502.962,202.02L540.497,224.541L540.497,202.02L502.962,224.541Z" style="fill:none;stroke:black;stroke-width:1px;"/>
            <path d="M529.237,190.759L521.73,190.759L521.73,213.28L521.73,190.759L514.223,190.759L514.223,168.238L529.237,168.238L529.237,190.759Z" style="fill-opacity:0;fill-rule:nonzero;stroke:black;stroke-width:1px;"/>
        </g>
        <g id="Pump1" transform="matrix(1.06566,0,0,1.06566,-72.2634,-77.986)">
            <path id="Pump1BG" d="M664.626,250.816C643.895,250.816 627.09,234.011 627.09,213.28C627.09,192.55 643.895,175.745 664.626,175.745C685.356,175.745 702.161,192.55 702.161,213.28C702.161,234.011 685.356,250.816 664.626,250.816Z" style="fill:rgb(255,0,0);fill-rule:nonzero;"/>
            <path d="M664.626,250.816C643.895,250.816 627.09,234.011 627.09,213.28C627.09,192.55 643.895,175.745 664.626,175.745C685.356,175.745 702.161,192.55 702.161,213.28C702.161,234.011 685.356,250.816 664.626,250.816Z" style="fill-opacity:0;fill-rule:nonzero;stroke:black;stroke-width:1px;"/>
            <path d="M671.625,214.889C671.672,208.481 668.407,204.876 661.849,205.06C655.538,205.237 652.321,208.454 652.321,214.889C652.321,221.324 655.538,224.541 661.751,224.541C671.611,224.541 678.045,221.324 678.045,214.889C678.045,205.237 671.574,202.02 662.303,202.02C645.527,202.02 645.858,214.889 645.858,214.889" style="fill-opacity:0;fill-rule:nonzero;stroke:black;stroke-width:1px;"/>
            <g transform="matrix(1,0,0,1,1.877,0)">
                <path d="M632.72,234.863L696.531,227.356" style="fill-opacity:0;fill-rule:nonzero;stroke:black;stroke-width:1px;"/>
            </g>
            <path d="M638.351,187.944L698.408,199.205" style="fill-opacity:0;fill-rule:nonzero;stroke:black;stroke-width:1px;"/>
        </g>
        <g id="Pump2" transform="matrix(1.06564,0,0,1.06564,-72.2545,2.01859)">
            <path id="Pump2BG" d="M664.626,363.423C643.895,363.423 627.09,346.617 627.09,325.887C627.09,305.157 643.895,288.351 664.626,288.351C685.356,288.351 702.161,305.157 702.161,325.887C702.161,346.617 685.356,363.423 664.626,363.423Z" style="fill:rgb(255,0,0);fill-rule:nonzero;"/>
            <path d="M664.626,363.423C643.895,363.423 627.09,346.617 627.09,325.887C627.09,305.157 643.895,288.351 664.626,288.351C685.356,288.351 702.161,305.157 702.161,325.887C702.161,346.617 685.356,363.423 664.626,363.423Z" style="fill-opacity:0;fill-rule:nonzero;stroke:black;stroke-width:1px;"/>
            <path d="M671.625,327.496C671.672,321.088 668.407,317.483 661.849,317.667C655.538,317.844 652.321,321.061 652.321,327.496C652.321,333.93 655.538,337.148 661.751,337.148C671.611,337.148 678.045,333.93 678.045,327.496C678.045,317.844 671.574,314.626 662.303,314.626C645.527,314.626 645.858,327.496 645.858,327.496" style="fill-opacity:0;fill-rule:nonzero;stroke:black;stroke-width:1px;"/>
            <g transform="matrix(1,0,0,1,1.877,0.347854)">
                <path d="M632.72,347.47L696.531,339.963" style="fill-opacity:0;fill-rule:nonzero;stroke:black;stroke-width:1px;"/>
            </g>
            <g transform="matrix(1,0,0,1,0,-0.00416235)">
                <path d="M638.351,300.551L698.408,311.811" style="fill-opacity:0;fill-rule:nonzero;stroke:black;stroke-width:1px;"/>
            </g>
        </g>
        <g id="Valve2" transform="matrix(1,0,0,1,-34.3715,24.15)">
            <path id="Valve2BG" d="M502.962,337.148L502.962,314.626L540.497,337.148L540.497,314.626L502.962,337.148Z" style="fill:rgb(255,0,0);fill-rule:nonzero;"/>
            <path d="M502.962,337.148L502.962,314.626L540.497,337.148L540.497,314.626L502.962,337.148Z" style="fill:none;stroke:black;stroke-width:1px;"/>
            <path d="M529.237,303.366L521.73,303.366L521.73,325.887L521.73,303.366L514.223,303.366L514.223,280.844L529.237,280.844L529.237,303.366Z" style="fill-opacity:0;fill-rule:nonzero;stroke:black;stroke-width:1px;"/>
        </g>
        <g id="Vessel" transform="matrix(1,0,0,1,6,-19.8308)">
            <path id="VesselBG" d="M247.981,232.048L360.588,232.048C373.026,232.048 383.109,246.453 383.109,264.222L383.109,274.946C383.109,292.715 373.026,307.119 360.588,307.119L247.981,307.119C235.543,307.119 225.46,292.715 225.46,274.946L225.46,264.222C225.46,246.453 235.543,232.048 247.981,232.048Z" style="fill:rgb(255,0,0);fill-rule:nonzero;"/>
            <path id="_-Curve-" serif:id="(Curve)" d="M247.981,232.048L360.588,232.048C373.026,232.048 383.109,246.453 383.109,264.222L383.109,274.946C383.109,292.715 373.026,307.119 360.588,307.119L247.981,307.119C235.543,307.119 225.46,292.715 225.46,274.946L225.46,264.222C225.46,246.453 235.543,232.048 247.981,232.048Z" style="fill-opacity:0;fill-rule:nonzero;stroke:black;stroke-width:1.5px;"/>
        </g>
        <g id="Valve3" transform="matrix(1,0,0,1,6,-19.7073)">
            <path id="Valve3BG" d="M97.578,280.844L97.578,258.323L135.114,280.844L135.114,258.323L97.578,280.844Z" style="fill:rgb(255,0,0);fill-rule:nonzero;"/>
            <path d="M97.578,280.844L97.578,258.323L135.114,280.844L135.114,258.323L97.578,280.844Z" style="fill:none;stroke:black;stroke-width:1px;"/>
            <path d="M123.853,247.062L116.346,247.062L116.346,269.584L116.346,247.062L108.839,247.062L108.839,224.541L123.853,224.541L123.853,247.062Z" style="fill-opacity:0;fill-rule:nonzero;stroke:black;stroke-width:1px;"/>
        </g>
        <g transform="matrix(1,0,0,1,6,-19.7073)">
            <g>
                <path d="M41.275,280.844L41.275,258.323L78.81,280.844L78.81,258.323L41.275,280.844Z" style="fill:white;fill-rule:nonzero;"/>
                <path d="M41.275,280.844L41.275,258.323L78.81,280.844L78.81,258.323L41.275,280.844Z" style="fill-opacity:0;fill-rule:nonzero;stroke:black;stroke-width:1px;"/>
            </g>
            <path d="M67.55,247.062L60.042,247.062L60.042,269.584L60.042,247.062L52.535,247.062L67.55,247.062Z" style="fill-opacity:0;fill-rule:nonzero;stroke:black;stroke-width:1px;"/>
        </g>
    </g>
    <g id="Text">
        <g transform="matrix(1,0,0,1,658.688,261.482)">
            <text x="-3.36px" y="0px" style="font-family:'HelveticaNeue', 'Helvetica Neue';font-size:16px;">@S01@</text>
        </g>
        <g transform="matrix(1,0,0,1,655.328,61.4815)">
            <text x="0px" y="0px" style="font-family:'HelveticaNeue', 'Helvetica Neue';font-size:16px;">@S00@</text>
        </g>
        <g transform="matrix(1,0,0,1,491.315,62.1965)">
            <text x="0px" y="0px" style="font-family:'HelveticaNeue', 'Helvetica Neue';font-size:18px;">@P00@</text>
        </g>
        <g transform="matrix(1,0,0,1,491.315,262.197)">
            <text x="0px" y="0px" style="font-family:'HelveticaNeue', 'Helvetica Neue';font-size:18px;">@P01@</text>
        </g>
        <g transform="matrix(1,0,0,1,119.4,162.652)">
            <text x="0px" y="0px" style="font-family:'HelveticaNeue', 'Helvetica Neue';font-size:18px;">@P02@</text>
        </g>
    </g>
    <g id="Buttons" transform="matrix(1,0,0,1,1.071,14.4043)">
        <g id="button_0_0" transform="matrix(1,0,0,1,94.929,13.3572)">
            <rect x="550" y="4" width="110" height="48" style="fill:none;"/>
        </g>
        <g id="button_0_1" transform="matrix(0.727273,0,0,1.66667,194.929,88.227)">
            <rect x="550" y="4" width="110" height="48" style="fill:none;"/>
        </g>
        <g id="button_1_0" transform="matrix(1,0,0,1,94.929,213.358)">
            <rect x="550" y="4" width="110" height="48" style="fill:none;"/>
        </g>
        <g id="button_1_1" transform="matrix(0.727273,0,0,1.66669,194.928,288.227)">
            <rect x="550" y="4" width="110" height="48" style="fill:none;"/>
        </g>
        <g id="button_2_0" transform="matrix(0.454545,0,0,1.45833,213.138,77.1898)">
            <rect x="550" y="4" width="110" height="48" style="fill:none;"/>
        </g>
        <g id="button_3_0" transform="matrix(0.454545,0,0,1.45833,213.138,279.06)">
            <rect x="550" y="4" width="110" height="48" style="fill:none;"/>
        </g>
        <g id="button_4_0" transform="matrix(0.454545,0,0,1.45833,-153.735,177.382)">
            <rect x="550" y="4" width="110" height="48" style="fill:none;"/>
        </g>
    </g>
</svg>
