<?xml version="1.0" encoding="UTF-8" standalone="no"?>
<!DOCTYPE svg PUBLIC "-//W3C//DTD SVG 1.1//EN" "http://www.w3.org/Graphics/SVG/1.1/DTD/svg11.dtd">
<svg width="100%" height="100%" viewBox="0 0 460 520" version="1.1" xmlns="http://www.w3.org/2000/svg" xmlns:xlink="http://www.w3.org/1999/xlink" xml:space="preserve" xmlns:serif="http://www.serif.com/" style="fill-rule:evenodd;clip-rule:evenodd;stroke-miterlimit:1.5;">
    <g>
        <g>
            <g id="Bottom">
                <rect x="171.417" y="310" width="100" height="130" style="fill:rgb(158,158,158);stroke:black;stroke-width:1.33px;"/>
                <g id="Bottom1">
                    <path d="M245.972,325.138l57.444,-0.265" style="fill:none;stroke:rgb(213,179,0);stroke-width:2px;stroke-linejoin:round;"/>
                    <g transform="matrix(10.6667,0,0,10.6667,220.408,327.779)">
                    </g>
                    <text x="181.454px" y="327.779px" style="font-family:'ArialMT', 'Arial', sans-serif;font-size:10.667px;">B<tspan x="188.035px 193.434px 195.864px 198.294px 203.693px 212.045px 214.475px " y="327.779px 327.779px 327.779px 327.779px 327.779px 327.779px 327.779px ">ottom 1</tspan></text>
                    <g transform="matrix(10.6667,0,0,10.6667,357.684,327.766)">
                    </g>
                    <text x="307.229px" y="327.766px" style="font-family:'ArialMT', 'Arial', sans-serif;font-size:10.667px;"><tspan x="307.229px 312.627px 318.61px 325.191px 330.59px 333.02px 338.419px 343.818px 346.248px 349.981px " y="327.766px 327.766px 327.766px 327.766px 327.766px 327.766px 327.766px 327.766px 327.766px 327.766px ">§TBot1§ °C</tspan></text>
                    <g transform="matrix(10.6667,0,0,10.6667,427.647,327.766)">
                    </g>
                    <text x="383.299px" y="327.766px" style="font-family:'ArialMT', 'Arial', sans-serif;font-size:10.667px;"><tspan x="383.299px 386.318px 391.717px 398.887px 405.468px 410.867px 413.297px 418.696px 424.095px " y="327.766px 327.766px 327.766px 327.766px 327.766px 327.766px 327.766px 327.766px 327.766px ">(§CBot1§)</tspan></text>
                    <circle cx="241.232" cy="325.005" r="4.74" style="fill:rgb(213,179,0);stroke:black;stroke-width:0.67px;stroke-linejoin:round;"/>
                </g>
                <g id="Bottom2">
                    <path d="M245.972,345.138l57.444,-0.265" style="fill:none;stroke:rgb(213,179,0);stroke-width:2px;stroke-linejoin:round;"/>
                    <g transform="matrix(10.6667,0,0,10.6667,220.408,347.779)">
                    </g>
                    <text x="181.454px" y="347.779px" style="font-family:'ArialMT', 'Arial', sans-serif;font-size:10.667px;">B<tspan x="188.035px 193.434px 195.864px 198.294px 203.693px 212.045px 214.475px " y="347.779px 347.779px 347.779px 347.779px 347.779px 347.779px 347.779px ">ottom 2</tspan></text>
                    <g transform="matrix(10.6667,0,0,10.6667,357.684,347.766)">
                    </g>
                    <text x="307.229px" y="347.766px" style="font-family:'ArialMT', 'Arial', sans-serif;font-size:10.667px;"><tspan x="307.229px 312.627px 318.61px 325.191px 330.59px 333.02px 338.419px 343.818px 346.248px 349.981px " y="347.766px 347.766px 347.766px 347.766px 347.766px 347.766px 347.766px 347.766px 347.766px 347.766px ">§TBot2§ °C</tspan></text>
                    <g transform="matrix(10.6667,0,0,10.6667,427.647,347.766)">
                    </g>
                    <text x="383.299px" y="347.766px" style="font-family:'ArialMT', 'Arial', sans-serif;font-size:10.667px;"><tspan x="383.299px 386.318px 391.717px 398.887px 405.468px 410.867px 413.297px 418.696px 424.095px " y="347.766px 347.766px 347.766px 347.766px 347.766px 347.766px 347.766px 347.766px 347.766px ">(§CBot2§)</tspan></text>
                    <circle cx="241.232" cy="345.005" r="4.74" style="fill:rgb(213,179,0);stroke:black;stroke-width:0.67px;stroke-linejoin:round;"/>
                </g>
                <g id="Bottom3">
                    <path d="M245.972,365.138l57.444,-0.265" style="fill:none;stroke:rgb(213,179,0);stroke-width:2px;stroke-linejoin:round;"/>
                    <g transform="matrix(10.6667,0,0,10.6667,220.408,367.779)">
                    </g>
                    <text x="181.454px" y="367.779px" style="font-family:'ArialMT', 'Arial', sans-serif;font-size:10.667px;">B<tspan x="188.035px 193.434px 195.864px 198.294px 203.693px 212.045px 214.475px " y="367.779px 367.779px 367.779px 367.779px 367.779px 367.779px 367.779px ">ottom 3</tspan></text>
                    <g transform="matrix(10.6667,0,0,10.6667,357.684,367.766)">
                    </g>
                    <text x="307.229px" y="367.766px" style="font-family:'ArialMT', 'Arial', sans-serif;font-size:10.667px;"><tspan x="307.229px 312.627px 318.61px 325.191px 330.59px 333.02px 338.419px 343.818px 346.248px 349.981px " y="367.766px 367.766px 367.766px 367.766px 367.766px 367.766px 367.766px 367.766px 367.766px 367.766px ">§TBot3§ °C</tspan></text>
                    <g transform="matrix(10.6667,0,0,10.6667,427.647,367.766)">
                    </g>
                    <text x="383.299px" y="367.766px" style="font-family:'ArialMT', 'Arial', sans-serif;font-size:10.667px;"><tspan x="383.299px 386.318px 391.717px 398.887px 405.468px 410.867px 413.297px 418.696px 424.095px " y="367.766px 367.766px 367.766px 367.766px 367.766px 367.766px 367.766px 367.766px 367.766px ">(§CBot3§)</tspan></text>
                    <circle cx="241.232" cy="365.005" r="4.74" style="fill:rgb(213,179,0);stroke:black;stroke-width:0.67px;stroke-linejoin:round;"/>
                </g>
                <g id="Bottom4">
                    <path d="M245.972,385.138l57.444,-0.265" style="fill:none;stroke:rgb(213,179,0);stroke-width:2px;stroke-linejoin:round;"/>
                    <g transform="matrix(10.6667,0,0,10.6667,220.408,387.779)">
                    </g>
                    <text x="181.454px" y="387.779px" style="font-family:'ArialMT', 'Arial', sans-serif;font-size:10.667px;">B<tspan x="188.035px 193.434px 195.864px 198.294px 203.693px 212.045px 214.475px " y="387.779px 387.779px 387.779px 387.779px 387.779px 387.779px 387.779px ">ottom 4</tspan></text>
                    <g transform="matrix(10.6667,0,0,10.6667,357.684,387.766)">
                    </g>
                    <text x="307.229px" y="387.766px" style="font-family:'ArialMT', 'Arial', sans-serif;font-size:10.667px;"><tspan x="307.229px 312.627px 318.61px 325.191px 330.59px 333.02px 338.419px 343.818px 346.248px 349.981px " y="387.766px 387.766px 387.766px 387.766px 387.766px 387.766px 387.766px 387.766px 387.766px 387.766px ">§TBot4§ °C</tspan></text>
                    <g transform="matrix(10.6667,0,0,10.6667,427.647,387.766)">
                    </g>
                    <text x="383.299px" y="387.766px" style="font-family:'ArialMT', 'Arial', sans-serif;font-size:10.667px;"><tspan x="383.299px 386.318px 391.717px 398.887px 405.468px 410.867px 413.297px 418.696px 424.095px " y="387.766px 387.766px 387.766px 387.766px 387.766px 387.766px 387.766px 387.766px 387.766px ">(§CBot4§)</tspan></text>
                    <circle cx="241.232" cy="385.005" r="4.74" style="fill:rgb(213,179,0);stroke:black;stroke-width:0.67px;stroke-linejoin:round;"/>
                </g>
                <g id="Bottom5">
                    <path d="M245.972,405.138l57.444,-0.265" style="fill:none;stroke:rgb(213,179,0);stroke-width:2px;stroke-linejoin:round;"/>
                    <g transform="matrix(10.6667,0,0,10.6667,220.408,407.779)">
                    </g>
                    <text x="181.454px" y="407.779px" style="font-family:'ArialMT', 'Arial', sans-serif;font-size:10.667px;">B<tspan x="188.035px 193.434px 195.864px 198.294px 203.693px 212.045px 214.475px " y="407.779px 407.779px 407.779px 407.779px 407.779px 407.779px 407.779px ">ottom 5</tspan></text>
                    <g transform="matrix(10.6667,0,0,10.6667,357.684,407.766)">
                    </g>
                    <text x="307.229px" y="407.766px" style="font-family:'ArialMT', 'Arial', sans-serif;font-size:10.667px;"><tspan x="307.229px 312.627px 318.61px 325.191px 330.59px 333.02px 338.419px 343.818px 346.248px 349.981px " y="407.766px 407.766px 407.766px 407.766px 407.766px 407.766px 407.766px 407.766px 407.766px 407.766px ">§TBot5§ °C</tspan></text>
                    <g transform="matrix(10.6667,0,0,10.6667,427.647,407.766)">
                    </g>
                    <text x="383.299px" y="407.766px" style="font-family:'ArialMT', 'Arial', sans-serif;font-size:10.667px;"><tspan x="383.299px 386.318px 391.717px 398.887px 405.468px 410.867px 413.297px 418.696px 424.095px " y="407.766px 407.766px 407.766px 407.766px 407.766px 407.766px 407.766px 407.766px 407.766px ">(§CBot5§)</tspan></text>
                    <circle cx="241.232" cy="405.005" r="4.74" style="fill:rgb(213,179,0);stroke:black;stroke-width:0.67px;stroke-linejoin:round;"/>
                </g>
                <g id="Bottom6">
                    <path d="M245.972,425.138l57.444,-0.265" style="fill:none;stroke:rgb(213,179,0);stroke-width:2px;stroke-linejoin:round;"/>
                    <g transform="matrix(10.6667,0,0,10.6667,220.408,427.779)">
                    </g>
                    <text x="181.454px" y="427.779px" style="font-family:'ArialMT', 'Arial', sans-serif;font-size:10.667px;">B<tspan x="188.035px 193.434px 195.864px 198.294px 203.693px 212.045px 214.475px " y="427.779px 427.779px 427.779px 427.779px 427.779px 427.779px 427.779px ">ottom 6</tspan></text>
                    <g transform="matrix(10.6667,0,0,10.6667,357.684,427.766)">
                    </g>
                    <text x="307.229px" y="427.766px" style="font-family:'ArialMT', 'Arial', sans-serif;font-size:10.667px;"><tspan x="307.229px 312.627px 318.61px 325.191px 330.59px 333.02px 338.419px 343.818px 346.248px 349.981px " y="427.766px 427.766px 427.766px 427.766px 427.766px 427.766px 427.766px 427.766px 427.766px 427.766px ">§TBot6§ °C</tspan></text>
                    <g transform="matrix(10.6667,0,0,10.6667,427.647,427.766)">
                    </g>
                    <text x="383.299px" y="427.766px" style="font-family:'ArialMT', 'Arial', sans-serif;font-size:10.667px;"><tspan x="383.299px 386.318px 391.717px 398.887px 405.468px 410.867px 413.297px 418.696px 424.095px " y="427.766px 427.766px 427.766px 427.766px 427.766px 427.766px 427.766px 427.766px 427.766px ">(§CBot6§)</tspan></text>
                    <circle cx="241.232" cy="425.005" r="4.74" style="fill:rgb(213,179,0);stroke:black;stroke-width:0.67px;stroke-linejoin:round;"/>
                </g>
            </g>
            <path d="M301.417,479.903l26,-0.097" style="fill:none;stroke:rgb(8,19,185);stroke-width:2px;stroke-linejoin:round;"/>
            <rect x="141.417" y="460" width="160" height="40" style="fill:rgb(8,19,185);stroke:black;stroke-width:1.33px;stroke-linejoin:round;"/>
            <rect x="161.417" y="440" width="120" height="20" style="fill:rgb(13,121,242);stroke:black;stroke-width:1.33px;stroke-linejoin:round;"/>
            <g transform="matrix(10.6667,0,0,10.6667,381.104,482.76)">
            </g>
            <text x="331.842px" y="482.76px" style="font-family:'ArialMT', 'Arial', sans-serif;font-size:10.667px;"><tspan x="331.842px 337.241px 343.223px 349.804px 351.641px 357.04px 361.84px 367.239px 369.669px 373.401px " y="482.76px 482.76px 482.76px 482.76px 482.76px 482.76px 482.76px 482.76px 482.76px 482.76px ">§TSink§ °C</tspan></text>
            <path d="M281.417,449.978l46,-0.172" style="fill:none;stroke:rgb(13,121,242);stroke-width:2px;stroke-linejoin:round;"/>
            <g transform="matrix(10.6667,0,0,10.6667,388.989,452.76)">
            </g>
            <text x="331.842px" y="452.76px" style="font-family:'ArialMT', 'Arial', sans-serif;font-size:10.667px;"><tspan x="331.842px 337.241px 343.223px 349.804px 355.203px 357.04px 359.47px 361.306px 366.705px 369.724px 375.123px 377.553px 381.285px " y="452.76px 452.76px 452.76px 452.76px 452.76px 452.76px 452.76px 452.76px 452.76px 452.76px 452.76px 452.76px 452.76px ">§TPeltier§ °C</tspan></text>
        </g>
        <g>
            <g id="Top">
                <rect x="171.417" y="40" width="100" height="130" style="fill:rgb(158,158,158);stroke:black;stroke-width:1.33px;"/>
                <g id="Top1">
                    <path d="M245.972,55.138l57.444,-0.265" style="fill:none;stroke:rgb(213,179,0);stroke-width:2px;stroke-linejoin:round;"/>
                    <g transform="matrix(10.6667,0,0,10.6667,220.408,57.7786)">
                    </g>
                    <text x="196.447px" y="57.779px" style="font-family:'ArialMT', 'Arial', sans-serif;font-size:10.667px;">T<tspan x="201.247px 206.646px 212.045px 214.475px " y="57.779px 57.779px 57.779px 57.779px ">op 1</tspan></text>
                    <g transform="matrix(10.6667,0,0,10.6667,358.871,57.7656)">
                    </g>
                    <text x="307.229px" y="57.766px" style="font-family:'ArialMT', 'Arial', sans-serif;font-size:10.667px;"><tspan x="307.229px 312.627px 318.61px 323.41px 328.809px 334.208px 339.607px 345.006px 347.436px 351.168px " y="57.766px 57.766px 57.766px 57.766px 57.766px 57.766px 57.766px 57.766px 57.766px 57.766px ">§TTop1§ °C</tspan></text>
                    <g transform="matrix(10.6667,0,0,10.6667,428.835,57.7656)">
                    </g>
                    <text x="383.299px" y="57.766px" style="font-family:'ArialMT', 'Arial', sans-serif;font-size:10.667px;"><tspan x="383.299px 386.318px 391.717px 398.887px 403.687px 409.086px 414.485px 419.884px 425.283px " y="57.766px 57.766px 57.766px 57.766px 57.766px 57.766px 57.766px 57.766px 57.766px ">(§CTop1§)</tspan></text>
                    <circle cx="241.232" cy="55.005" r="4.74" style="fill:rgb(213,179,0);stroke:black;stroke-width:0.67px;stroke-linejoin:round;"/>
                </g>
                <g id="Top2">
                    <path d="M245.972,75.138l57.444,-0.265" style="fill:none;stroke:rgb(213,179,0);stroke-width:2px;stroke-linejoin:round;"/>
                    <g transform="matrix(10.6667,0,0,10.6667,220.408,77.7786)">
                    </g>
                    <text x="196.447px" y="77.779px" style="font-family:'ArialMT', 'Arial', sans-serif;font-size:10.667px;">T<tspan x="201.247px 206.646px 212.045px 214.475px " y="77.779px 77.779px 77.779px 77.779px ">op 2</tspan></text>
                    <g transform="matrix(10.6667,0,0,10.6667,358.871,77.7656)">
                    </g>
                    <text x="307.229px" y="77.766px" style="font-family:'ArialMT', 'Arial', sans-serif;font-size:10.667px;"><tspan x="307.229px 312.627px 318.61px 323.41px 328.809px 334.208px 339.607px 345.006px 347.436px 351.168px " y="77.766px 77.766px 77.766px 77.766px 77.766px 77.766px 77.766px 77.766px 77.766px 77.766px ">§TTop2§ °C</tspan></text>
                    <g transform="matrix(10.6667,0,0,10.6667,428.835,77.7656)">
                    </g>
                    <text x="383.299px" y="77.766px" style="font-family:'ArialMT', 'Arial', sans-serif;font-size:10.667px;"><tspan x="383.299px 386.318px 391.717px 398.887px 403.687px 409.086px 414.485px 419.884px 425.283px " y="77.766px 77.766px 77.766px 77.766px 77.766px 77.766px 77.766px 77.766px 77.766px ">(§CTop2§)</tspan></text>
                    <circle cx="241.232" cy="75.005" r="4.74" style="fill:rgb(213,179,0);stroke:black;stroke-width:0.67px;stroke-linejoin:round;"/>
                </g>
                <g id="Top3">
                    <path d="M245.972,95.138l57.444,-0.265" style="fill:none;stroke:rgb(213,179,0);stroke-width:2px;stroke-linejoin:round;"/>
                    <g transform="matrix(10.6667,0,0,10.6667,220.408,97.7786)">
                    </g>
                    <text x="196.447px" y="97.779px" style="font-family:'ArialMT', 'Arial', sans-serif;font-size:10.667px;">T<tspan x="201.247px 206.646px 212.045px 214.475px " y="97.779px 97.779px 97.779px 97.779px ">op 3</tspan></text>
                    <g transform="matrix(10.6667,0,0,10.6667,358.871,97.7656)">
                    </g>
                    <text x="307.229px" y="97.766px" style="font-family:'ArialMT', 'Arial', sans-serif;font-size:10.667px;"><tspan x="307.229px 312.627px 318.61px 323.41px 328.809px 334.208px 339.607px 345.006px 347.436px 351.168px " y="97.766px 97.766px 97.766px 97.766px 97.766px 97.766px 97.766px 97.766px 97.766px 97.766px ">§TTop3§ °C</tspan></text>
                    <g transform="matrix(10.6667,0,0,10.6667,428.835,97.7656)">
                    </g>
                    <text x="383.299px" y="97.766px" style="font-family:'ArialMT', 'Arial', sans-serif;font-size:10.667px;"><tspan x="383.299px 386.318px 391.717px 398.887px 403.687px 409.086px 414.485px 419.884px 425.283px " y="97.766px 97.766px 97.766px 97.766px 97.766px 97.766px 97.766px 97.766px 97.766px ">(§CTop3§)</tspan></text>
                    <circle cx="241.232" cy="95.005" r="4.74" style="fill:rgb(213,179,0);stroke:black;stroke-width:0.67px;stroke-linejoin:round;"/>
                </g>
                <g id="Top4">
                    <path d="M245.972,115.138l57.444,-0.265" style="fill:none;stroke:rgb(213,179,0);stroke-width:2px;stroke-linejoin:round;"/>
                    <g transform="matrix(10.6667,0,0,10.6667,220.408,117.779)">
                    </g>
                    <text x="196.447px" y="117.779px" style="font-family:'ArialMT', 'Arial', sans-serif;font-size:10.667px;">T<tspan x="201.247px 206.646px 212.045px 214.475px " y="117.779px 117.779px 117.779px 117.779px ">op 4</tspan></text>
                    <g transform="matrix(10.6667,0,0,10.6667,358.871,117.766)">
                    </g>
                    <text x="307.229px" y="117.766px" style="font-family:'ArialMT', 'Arial', sans-serif;font-size:10.667px;"><tspan x="307.229px 312.627px 318.61px 323.41px 328.809px 334.208px 339.607px 345.006px 347.436px 351.168px " y="117.766px 117.766px 117.766px 117.766px 117.766px 117.766px 117.766px 117.766px 117.766px 117.766px ">§TTop4§ °C</tspan></text>
                    <g transform="matrix(10.6667,0,0,10.6667,428.835,117.766)">
                    </g>
                    <text x="383.299px" y="117.766px" style="font-family:'ArialMT', 'Arial', sans-serif;font-size:10.667px;"><tspan x="383.299px 386.318px 391.717px 398.887px 403.687px 409.086px 414.485px 419.884px 425.283px " y="117.766px 117.766px 117.766px 117.766px 117.766px 117.766px 117.766px 117.766px 117.766px ">(§CTop4§)</tspan></text>
                    <circle cx="241.232" cy="115.005" r="4.74" style="fill:rgb(213,179,0);stroke:black;stroke-width:0.67px;stroke-linejoin:round;"/>
                </g>
                <g id="Top5">
                    <path d="M245.972,135.138l57.444,-0.265" style="fill:none;stroke:rgb(213,179,0);stroke-width:2px;stroke-linejoin:round;"/>
                    <g transform="matrix(10.6667,0,0,10.6667,220.408,137.779)">
                    </g>
                    <text x="196.447px" y="137.779px" style="font-family:'ArialMT', 'Arial', sans-serif;font-size:10.667px;">T<tspan x="201.247px 206.646px 212.045px 214.475px " y="137.779px 137.779px 137.779px 137.779px ">op 5</tspan></text>
                    <g transform="matrix(10.6667,0,0,10.6667,358.871,137.766)">
                    </g>
                    <text x="307.229px" y="137.766px" style="font-family:'ArialMT', 'Arial', sans-serif;font-size:10.667px;"><tspan x="307.229px 312.627px 318.61px 323.41px 328.809px 334.208px 339.607px 345.006px 347.436px 351.168px " y="137.766px 137.766px 137.766px 137.766px 137.766px 137.766px 137.766px 137.766px 137.766px 137.766px ">§TTop5§ °C</tspan></text>
                    <g transform="matrix(10.6667,0,0,10.6667,428.835,137.766)">
                    </g>
                    <text x="383.299px" y="137.766px" style="font-family:'ArialMT', 'Arial', sans-serif;font-size:10.667px;"><tspan x="383.299px 386.318px 391.717px 398.887px 403.687px 409.086px 414.485px 419.884px 425.283px " y="137.766px 137.766px 137.766px 137.766px 137.766px 137.766px 137.766px 137.766px 137.766px ">(§CTop5§)</tspan></text>
                    <circle cx="241.232" cy="135.005" r="4.74" style="fill:rgb(213,179,0);stroke:black;stroke-width:0.67px;stroke-linejoin:round;"/>
                </g>
                <g id="Top6">
                    <path d="M245.972,155.138l57.444,-0.265" style="fill:none;stroke:rgb(213,179,0);stroke-width:2px;stroke-linejoin:round;"/>
                    <g transform="matrix(10.6667,0,0,10.6667,220.408,157.779)">
                    </g>
                    <text x="196.447px" y="157.779px" style="font-family:'ArialMT', 'Arial', sans-serif;font-size:10.667px;">T<tspan x="201.247px 206.646px 212.045px 214.475px " y="157.779px 157.779px 157.779px 157.779px ">op 6</tspan></text>
                    <g transform="matrix(10.6667,0,0,10.6667,358.871,157.766)">
                    </g>
                    <text x="307.229px" y="157.766px" style="font-family:'ArialMT', 'Arial', sans-serif;font-size:10.667px;"><tspan x="307.229px 312.627px 318.61px 323.41px 328.809px 334.208px 339.607px 345.006px 347.436px 351.168px " y="157.766px 157.766px 157.766px 157.766px 157.766px 157.766px 157.766px 157.766px 157.766px 157.766px ">§TTop6§ °C</tspan></text>
                    <g transform="matrix(10.6667,0,0,10.6667,428.835,157.766)">
                    </g>
                    <text x="383.299px" y="157.766px" style="font-family:'ArialMT', 'Arial', sans-serif;font-size:10.667px;"><tspan x="383.299px 386.318px 391.717px 398.887px 403.687px 409.086px 414.485px 419.884px 425.283px " y="157.766px 157.766px 157.766px 157.766px 157.766px 157.766px 157.766px 157.766px 157.766px ">(§CTop6§)</tspan></text>
                    <circle cx="241.232" cy="155.005" r="4.74" style="fill:rgb(213,179,0);stroke:black;stroke-width:0.67px;stroke-linejoin:round;"/>
                </g>
            </g>
            <path d="M241.417,29.929l51.999,-0.194" style="fill:none;stroke:rgb(185,8,8);stroke-width:2px;stroke-linejoin:round;"/>
            <rect x="201.417" y="20" width="40" height="20" style="fill:rgb(185,8,8);stroke:black;stroke-width:1.33px;stroke-linejoin:round;"/>
            <g transform="matrix(10.6667,0,0,10.6667,357.702,32.7604)">
            </g>
            <text x="297.229px" y="32.76px" style="font-family:'ArialMT', 'Arial', sans-serif;font-size:10.667px;"><tspan x="297.229px 302.627px 309.209px 315.79px 321.189px 326.588px 329.607px 334.407px 339.806px 345.205px 347.635px " y="32.76px 32.76px 32.76px 32.76px 32.76px 32.76px 32.76px 32.76px 32.76px 32.76px 32.76px ">§PSource§ W</tspan></text>
        </g>
        <g>
            <path d="M271.417,170l10,-0l26.615,25.005l10.019,0" style="fill:none;stroke:rgb(109,156,120);stroke-width:2px;stroke-linejoin:round;"/>
            <path d="M271.417,310l10,0l26.615,-25.005l10.019,-0" style="fill:none;stroke:rgb(109,156,120);stroke-width:2px;stroke-linejoin:round;"/>
            <path d="M271.417,240l46.634,0" style="fill:none;stroke:rgb(109,156,120);stroke-width:2px;stroke-linejoin:round;"/>
            <rect x="171.417" y="170" width="100" height="140" style="fill:rgb(109,156,120);stroke:black;stroke-width:1.33px;"/>
            <g transform="matrix(10.6667,0,0,10.6667,401.839,197.766)">
            </g>
            <text x="322.629px" y="197.766px" style="font-family:'ArialMT', 'Arial', sans-serif;font-size:10.667px;"><tspan x="322.629px 328.028px 334.01px 338.81px 344.209px 349.608px 356.189px 361.588px 369.94px 375.339px 377.176px 382.575px 387.974px 390.404px 394.136px " y="197.766px 197.766px 197.766px 197.766px 197.766px 197.766px 197.766px 197.766px 197.766px 197.766px 197.766px 197.766px 197.766px 197.766px 197.766px ">§TTopSample§ °C</tspan></text>
            <g transform="matrix(10.6667,0,0,10.6667,401.839,287.755)">
            </g>
            <text x="323.816px" y="287.755px" style="font-family:'ArialMT', 'Arial', sans-serif;font-size:10.667px;"><tspan x="323.816px 329.215px 335.198px 341.779px 347.178px 349.608px 356.189px 361.588px 369.94px 375.339px 377.176px 382.575px 387.974px 390.404px 394.136px " y="287.755px 287.755px 287.755px 287.755px 287.755px 287.755px 287.755px 287.755px 287.755px 287.755px 287.755px 287.755px 287.755px 287.755px 287.755px ">§TBotSample§ °C</tspan></text>
            <g transform="matrix(10.6667,0,0,10.6667,401.839,242.76)">
            </g>
            <text x="322.639px" y="242.76px" style="font-family:'ArialMT', 'Arial', sans-serif;font-size:10.667px;"><tspan x="322.639px 328.038px 334.02px 342.373px 344.209px 349.608px 356.189px 361.588px 369.94px 375.339px 377.176px 382.575px 387.974px 390.404px 394.136px " y="242.76px 242.76px 242.76px 242.76px 242.76px 242.76px 242.76px 242.76px 242.76px 242.76px 242.76px 242.76px 242.76px 242.76px 242.76px ">§TMidSample§ °C</tspan></text>
        </g>
        <g>
            <path d="M131.417,50l20,-0l0,70l10,-0l-20,40l-20,-40l10,-0l0,-70Z" style="fill:rgb(158,158,158);"/>
            <path d="M131.417,50l20,-0l0,70l10,-0l-20,40l-20,-40l10,-0l0,-70Zm0.667,0.667l-0,70l-9.588,-0l18.921,37.842l18.922,-37.842l-9.588,-0l-0,-70l-18.667,-0Z"/>
            <g transform="matrix(10.6667,0,0,10.6667,107.105,67.7656)">
            </g>
            <text x="38.802px" y="67.766px" style="font-family:'ArialMT', 'Arial', sans-serif;font-size:10.667px;"><tspan x="38.802px 44.201px 51.964px 54.983px 60.382px 65.781px 70.581px 75.98px 81.379px 86.778px 89.208px 95.789px 98.219px " y="67.766px 67.766px 67.766px 67.766px 67.766px 67.766px 67.766px 67.766px 67.766px 67.766px 67.766px 67.766px 67.766px ">§GradTop§ K/m</tspan></text>
            <g transform="matrix(10.6667,0,0,10.6667,107.105,87.7656)">
            </g>
            <text x="61.63px" y="87.766px" style="font-family:'ArialMT', 'Arial', sans-serif;font-size:10.667px;"><tspan x="61.63px 67.029px 73.61px 78.41px 83.809px 89.208px 94.607px 97.037px " y="87.766px 87.766px 87.766px 87.766px 87.766px 87.766px 87.766px 87.766px ">§PTop§ W</tspan></text>
        </g>
        <g>
            <path d="M131.417,320l20,0l0,70l10,0l-20,40l-20,-40l10,0l0,-70Z" style="fill:rgb(158,158,158);"/>
            <path d="M131.417,320l20,0l0,70l10,-0l-20,40l-20,-40l10,-0l0,-70Zm0.667,0.667l-0,70l-9.588,-0l18.921,37.842l18.922,-37.842l-9.588,-0l-0,-70l-18.667,-0Z"/>
            <g transform="matrix(10.6667,0,0,10.6667,107.105,337.766)">
            </g>
            <text x="39.989px" y="337.766px" style="font-family:'ArialMT', 'Arial', sans-serif;font-size:10.667px;"><tspan x="39.989px 45.388px 53.152px 56.17px 61.569px 66.968px 73.55px 78.949px 81.379px 86.778px 89.208px 95.789px 98.219px " y="337.766px 337.766px 337.766px 337.766px 337.766px 337.766px 337.766px 337.766px 337.766px 337.766px 337.766px 337.766px 337.766px ">§GradBot§ K/m</tspan></text>
            <g transform="matrix(10.6667,0,0,10.6667,107.105,357.766)">
            </g>
            <text x="62.817px" y="357.766px" style="font-family:'ArialMT', 'Arial', sans-serif;font-size:10.667px;"><tspan x="62.817px 68.216px 74.798px 81.379px 86.778px 89.208px 94.607px 97.037px " y="357.766px 357.766px 357.766px 357.766px 357.766px 357.766px 357.766px 357.766px ">§PBot§ W</tspan></text>
        </g>
        <g transform="matrix(10.6667,0,0,10.6667,129.683,27.7656)">
        </g>
        <text x="39.239px" y="27.766px" style="font-family:'ArialMT', 'Arial', sans-serif;font-size:10.667px;"><tspan x="39.239px 45.82px 54.173px 59.571px 61.408px 66.807px 72.206px 74.636px 77.066px 79.496px 84.895px 90.086px 96.667px 105.019px 110.418px 115.817px 118.248px 121.98px " y="27.766px 27.766px 27.766px 27.766px 27.766px 27.766px 27.766px 27.766px 27.766px 27.766px 27.766px 27.766px 27.766px 27.766px 27.766px 27.766px 27.766px 27.766px ">Ambient: §TAmb§ °C</tspan></text>
    </g>
</svg>
