<?xml version="1.0" encoding="UTF-8" standalone="no"?>
<!DOCTYPE svg PUBLIC "-//W3C//DTD SVG 1.1//EN" "http://www.w3.org/Graphics/SVG/1.1/DTD/svg11.dtd">
<svg width="100%" height="100%" viewBox="0 0 460 500" version="1.1" xmlns="http://www.w3.org/2000/svg" xmlns:xlink="http://www.w3.org/1999/xlink" xml:space="preserve" xmlns:serif="http://www.serif.com/" style="fill-rule:evenodd;clip-rule:evenodd;stroke-miterlimit:1.5;">
    <rect x="0" y="0" width="460" height="500" style="fill:rgb(115,115,115);"/>
    <g>
        <g>
            <g id="Bottom">
                <rect x="169.867" y="310" width="100" height="130" style="fill:rgb(158,158,158);stroke:black;stroke-width:1.33px;"/>
                <g id="Bottom1">
                    <path d="M234.422,325.138l57.444,-0.265" style="fill:none;stroke:rgb(213,179,0);stroke-width:2px;stroke-linejoin:round;"/>
                    <text x="179.903px" y="327.779px" style="font-family:'ArialMT', 'Arial', sans-serif;font-size:10.667px;">B<tspan x="186.484px 191.883px 194.313px 196.744px 202.142px 210.495px 212.925px " y="327.779px 327.779px 327.779px 327.779px 327.779px 327.779px 327.779px ">ottom 1</tspan></text>
                    <text x="295.678px" y="327.766px" style="font-family:'ArialMT', 'Arial', sans-serif;font-size:10.667px;"><tspan x="295.678px 301.077px 307.059px 313.64px 319.039px 321.47px 326.869px 332.267px 334.698px 338.43px " y="327.766px 327.766px 327.766px 327.766px 327.766px 327.766px 327.766px 327.766px 327.766px 327.766px ">§TBot1§ °C</tspan></text>
                    <text x="361.749px" y="327.766px" style="font-family:'ArialMT', 'Arial', sans-serif;font-size:10.667px;"><tspan x="361.749px 364.767px 370.166px 377.336px 383.917px 389.316px 391.747px 397.146px 402.545px " y="327.766px 327.766px 327.766px 327.766px 327.766px 327.766px 327.766px 327.766px 327.766px ">(§CBot1§)</tspan></text>
                    <circle cx="229.681" cy="325.005" r="4.74" style="fill:rgb(213,179,0);stroke:black;stroke-width:0.67px;stroke-linejoin:round;"/>
                </g>
                <g id="Bottom2">
                    <path d="M234.422,345.138l57.444,-0.265" style="fill:none;stroke:rgb(213,179,0);stroke-width:2px;stroke-linejoin:round;"/>
                    <text x="179.903px" y="347.779px" style="font-family:'ArialMT', 'Arial', sans-serif;font-size:10.667px;">B<tspan x="186.484px 191.883px 194.313px 196.744px 202.142px 210.495px 212.925px " y="347.779px 347.779px 347.779px 347.779px 347.779px 347.779px 347.779px ">ottom 2</tspan></text>
                    <text x="295.678px" y="347.766px" style="font-family:'ArialMT', 'Arial', sans-serif;font-size:10.667px;"><tspan x="295.678px 301.077px 307.059px 313.64px 319.039px 321.47px 326.869px 332.267px 334.698px 338.43px " y="347.766px 347.766px 347.766px 347.766px 347.766px 347.766px 347.766px 347.766px 347.766px 347.766px ">§TBot2§ °C</tspan></text>
                    <text x="361.749px" y="347.766px" style="font-family:'ArialMT', 'Arial', sans-serif;font-size:10.667px;"><tspan x="361.749px 364.767px 370.166px 377.336px 383.917px 389.316px 391.747px 397.146px 402.545px " y="347.766px 347.766px 347.766px 347.766px 347.766px 347.766px 347.766px 347.766px 347.766px ">(§CBot2§)</tspan></text>
                    <circle cx="229.681" cy="345.005" r="4.74" style="fill:rgb(213,179,0);stroke:black;stroke-width:0.67px;stroke-linejoin:round;"/>
                </g>
                <g id="Bottom3">
                    <path d="M234.422,365.138l57.444,-0.265" style="fill:none;stroke:rgb(213,179,0);stroke-width:2px;stroke-linejoin:round;"/>
                    <text x="179.903px" y="367.779px" style="font-family:'ArialMT', 'Arial', sans-serif;font-size:10.667px;">B<tspan x="186.484px 191.883px 194.313px 196.744px 202.142px 210.495px 212.925px " y="367.779px 367.779px 367.779px 367.779px 367.779px 367.779px 367.779px ">ottom 3</tspan></text>
                    <text x="295.678px" y="367.766px" style="font-family:'ArialMT', 'Arial', sans-serif;font-size:10.667px;"><tspan x="295.678px 301.077px 307.059px 313.64px 319.039px 321.47px 326.869px 332.267px 334.698px 338.43px " y="367.766px 367.766px 367.766px 367.766px 367.766px 367.766px 367.766px 367.766px 367.766px 367.766px ">§TBot3§ °C</tspan></text>
                    <text x="361.749px" y="367.766px" style="font-family:'ArialMT', 'Arial', sans-serif;font-size:10.667px;"><tspan x="361.749px 364.767px 370.166px 377.336px 383.917px 389.316px 391.747px 397.146px 402.545px " y="367.766px 367.766px 367.766px 367.766px 367.766px 367.766px 367.766px 367.766px 367.766px ">(§CBot3§)</tspan></text>
                    <circle cx="229.681" cy="365.005" r="4.74" style="fill:rgb(213,179,0);stroke:black;stroke-width:0.67px;stroke-linejoin:round;"/>
                </g>
                <g id="Bottom4">
                    <path d="M234.422,385.138l57.444,-0.265" style="fill:none;stroke:rgb(213,179,0);stroke-width:2px;stroke-linejoin:round;"/>
                    <text x="179.903px" y="387.779px" style="font-family:'ArialMT', 'Arial', sans-serif;font-size:10.667px;">B<tspan x="186.484px 191.883px 194.313px 196.744px 202.142px 210.495px 212.925px " y="387.779px 387.779px 387.779px 387.779px 387.779px 387.779px 387.779px ">ottom 4</tspan></text>
                    <text x="295.678px" y="387.766px" style="font-family:'ArialMT', 'Arial', sans-serif;font-size:10.667px;"><tspan x="295.678px 301.077px 307.059px 313.64px 319.039px 321.47px 326.869px 332.267px 334.698px 338.43px " y="387.766px 387.766px 387.766px 387.766px 387.766px 387.766px 387.766px 387.766px 387.766px 387.766px ">§TBot4§ °C</tspan></text>
                    <text x="361.749px" y="387.766px" style="font-family:'ArialMT', 'Arial', sans-serif;font-size:10.667px;"><tspan x="361.749px 364.767px 370.166px 377.336px 383.917px 389.316px 391.747px 397.146px 402.545px " y="387.766px 387.766px 387.766px 387.766px 387.766px 387.766px 387.766px 387.766px 387.766px ">(§CBot4§)</tspan></text>
                    <circle cx="229.681" cy="385.005" r="4.74" style="fill:rgb(213,179,0);stroke:black;stroke-width:0.67px;stroke-linejoin:round;"/>
                </g>
                <g id="Bottom5">
                    <path d="M234.422,405.138l57.444,-0.265" style="fill:none;stroke:rgb(213,179,0);stroke-width:2px;stroke-linejoin:round;"/>
                    <text x="179.903px" y="407.779px" style="font-family:'ArialMT', 'Arial', sans-serif;font-size:10.667px;">B<tspan x="186.484px 191.883px 194.313px 196.744px 202.142px 210.495px 212.925px " y="407.779px 407.779px 407.779px 407.779px 407.779px 407.779px 407.779px ">ottom 5</tspan></text>
                    <text x="295.678px" y="407.766px" style="font-family:'ArialMT', 'Arial', sans-serif;font-size:10.667px;"><tspan x="295.678px 301.077px 307.059px 313.64px 319.039px 321.47px 326.869px 332.267px 334.698px 338.43px " y="407.766px 407.766px 407.766px 407.766px 407.766px 407.766px 407.766px 407.766px 407.766px 407.766px ">§TBot5§ °C</tspan></text>
                    <text x="361.749px" y="407.766px" style="font-family:'ArialMT', 'Arial', sans-serif;font-size:10.667px;"><tspan x="361.749px 364.767px 370.166px 377.336px 383.917px 389.316px 391.747px 397.146px 402.545px " y="407.766px 407.766px 407.766px 407.766px 407.766px 407.766px 407.766px 407.766px 407.766px ">(§CBot5§)</tspan></text>
                    <circle cx="229.681" cy="405.005" r="4.74" style="fill:rgb(213,179,0);stroke:black;stroke-width:0.67px;stroke-linejoin:round;"/>
                </g>
                <g id="Bottom6">
                    <path d="M234.422,425.138l57.444,-0.265" style="fill:none;stroke:rgb(213,179,0);stroke-width:2px;stroke-linejoin:round;"/>
                    <text x="179.903px" y="427.779px" style="font-family:'ArialMT', 'Arial', sans-serif;font-size:10.667px;">B<tspan x="186.484px 191.883px 194.313px 196.744px 202.142px 210.495px 212.925px " y="427.779px 427.779px 427.779px 427.779px 427.779px 427.779px 427.779px ">ottom 6</tspan></text>
                    <text x="295.678px" y="427.766px" style="font-family:'ArialMT', 'Arial', sans-serif;font-size:10.667px;"><tspan x="295.678px 301.077px 307.059px 313.64px 319.039px 321.47px 326.869px 332.267px 334.698px 338.43px " y="427.766px 427.766px 427.766px 427.766px 427.766px 427.766px 427.766px 427.766px 427.766px 427.766px ">§TBot6§ °C</tspan></text>
                    <text x="361.749px" y="427.766px" style="font-family:'ArialMT', 'Arial', sans-serif;font-size:10.667px;"><tspan x="361.749px 364.767px 370.166px 377.336px 383.917px 389.316px 391.747px 397.146px 402.545px " y="427.766px 427.766px 427.766px 427.766px 427.766px 427.766px 427.766px 427.766px 427.766px ">(§CBot6§)</tspan></text>
                    <circle cx="229.681" cy="425.005" r="4.74" style="fill:rgb(213,179,0);stroke:black;stroke-width:0.67px;stroke-linejoin:round;"/>
                </g>
            </g>
            <path d="M299.867,459.903l25.999,-0.097" style="fill:none;stroke:rgb(8,19,185);stroke-width:2px;stroke-linejoin:round;"/>
            <rect x="139.867" y="440" width="160" height="40" style="fill:rgb(8,19,185);stroke:black;stroke-width:1.33px;stroke-linejoin:round;"/>
            <text x="330.291px" y="462.76px" style="font-family:'ArialMT', 'Arial', sans-serif;font-size:10.667px;"><tspan x="330.291px 335.69px 341.672px 348.254px 350.09px 355.489px 360.289px 365.688px 368.118px 371.85px " y="462.76px 462.76px 462.76px 462.76px 462.76px 462.76px 462.76px 462.76px 462.76px 462.76px ">§TSink§ °C</tspan></text>
        </g>
        <g>
            <g id="Top">
                <rect x="169.867" y="40" width="100" height="130" style="fill:rgb(158,158,158);stroke:black;stroke-width:1.33px;"/>
                <g id="Top1">
                    <path d="M234.422,55.138l57.444,-0.265" style="fill:none;stroke:rgb(213,179,0);stroke-width:2px;stroke-linejoin:round;"/>
                    <text x="194.897px" y="57.779px" style="font-family:'ArialMT', 'Arial', sans-serif;font-size:10.667px;">T<tspan x="199.697px 205.096px 210.495px 212.925px " y="57.779px 57.779px 57.779px 57.779px ">op 1</tspan></text>
                    <text x="295.678px" y="57.766px" style="font-family:'ArialMT', 'Arial', sans-serif;font-size:10.667px;"><tspan x="295.678px 301.077px 307.059px 311.859px 317.258px 322.657px 328.056px 333.455px 335.885px 339.617px " y="57.766px 57.766px 57.766px 57.766px 57.766px 57.766px 57.766px 57.766px 57.766px 57.766px ">§TTop1§ °C</tspan></text>
                    <text x="361.749px" y="57.766px" style="font-family:'ArialMT', 'Arial', sans-serif;font-size:10.667px;"><tspan x="361.749px 364.767px 370.166px 377.336px 382.136px 387.535px 392.934px 398.333px 403.732px " y="57.766px 57.766px 57.766px 57.766px 57.766px 57.766px 57.766px 57.766px 57.766px ">(§CTop1§)</tspan></text>
                    <circle cx="229.681" cy="55.005" r="4.74" style="fill:rgb(213,179,0);stroke:black;stroke-width:0.67px;stroke-linejoin:round;"/>
                </g>
                <g id="Top2">
                    <path d="M234.422,75.138l57.444,-0.265" style="fill:none;stroke:rgb(213,179,0);stroke-width:2px;stroke-linejoin:round;"/>
                    <text x="194.897px" y="77.779px" style="font-family:'ArialMT', 'Arial', sans-serif;font-size:10.667px;">T<tspan x="199.697px 205.096px 210.495px 212.925px " y="77.779px 77.779px 77.779px 77.779px ">op 2</tspan></text>
                    <text x="295.678px" y="77.766px" style="font-family:'ArialMT', 'Arial', sans-serif;font-size:10.667px;"><tspan x="295.678px 301.077px 307.059px 311.859px 317.258px 322.657px 328.056px 333.455px 335.885px 339.617px " y="77.766px 77.766px 77.766px 77.766px 77.766px 77.766px 77.766px 77.766px 77.766px 77.766px ">§TTop2§ °C</tspan></text>
                    <text x="361.749px" y="77.766px" style="font-family:'ArialMT', 'Arial', sans-serif;font-size:10.667px;"><tspan x="361.749px 364.767px 370.166px 377.336px 382.136px 387.535px 392.934px 398.333px 403.732px " y="77.766px 77.766px 77.766px 77.766px 77.766px 77.766px 77.766px 77.766px 77.766px ">(§CTop2§)</tspan></text>
                    <circle cx="229.681" cy="75.005" r="4.74" style="fill:rgb(213,179,0);stroke:black;stroke-width:0.67px;stroke-linejoin:round;"/>
                </g>
                <g id="Top3">
                    <path d="M234.422,95.138l57.444,-0.265" style="fill:none;stroke:rgb(213,179,0);stroke-width:2px;stroke-linejoin:round;"/>
                    <text x="194.897px" y="97.779px" style="font-family:'ArialMT', 'Arial', sans-serif;font-size:10.667px;">T<tspan x="199.697px 205.096px 210.495px 212.925px " y="97.779px 97.779px 97.779px 97.779px ">op 3</tspan></text>
                    <text x="295.678px" y="97.766px" style="font-family:'ArialMT', 'Arial', sans-serif;font-size:10.667px;"><tspan x="295.678px 301.077px 307.059px 311.859px 317.258px 322.657px 328.056px 333.455px 335.885px 339.617px " y="97.766px 97.766px 97.766px 97.766px 97.766px 97.766px 97.766px 97.766px 97.766px 97.766px ">§TTop3§ °C</tspan></text>
                    <text x="361.749px" y="97.766px" style="font-family:'ArialMT', 'Arial', sans-serif;font-size:10.667px;"><tspan x="361.749px 364.767px 370.166px 377.336px 382.136px 387.535px 392.934px 398.333px 403.732px " y="97.766px 97.766px 97.766px 97.766px 97.766px 97.766px 97.766px 97.766px 97.766px ">(§CTop3§)</tspan></text>
                    <circle cx="229.681" cy="95.005" r="4.74" style="fill:rgb(213,179,0);stroke:black;stroke-width:0.67px;stroke-linejoin:round;"/>
                </g>
                <g id="Top4">
                    <path d="M234.422,115.138l57.444,-0.265" style="fill:none;stroke:rgb(213,179,0);stroke-width:2px;stroke-linejoin:round;"/>
                    <text x="194.897px" y="117.779px" style="font-family:'ArialMT', 'Arial', sans-serif;font-size:10.667px;">T<tspan x="199.697px 205.096px 210.495px 212.925px " y="117.779px 117.779px 117.779px 117.779px ">op 4</tspan></text>
                    <text x="295.678px" y="117.766px" style="font-family:'ArialMT', 'Arial', sans-serif;font-size:10.667px;"><tspan x="295.678px 301.077px 307.059px 311.859px 317.258px 322.657px 328.056px 333.455px 335.885px 339.617px " y="117.766px 117.766px 117.766px 117.766px 117.766px 117.766px 117.766px 117.766px 117.766px 117.766px ">§TTop4§ °C</tspan></text>
                    <text x="361.749px" y="117.766px" style="font-family:'ArialMT', 'Arial', sans-serif;font-size:10.667px;"><tspan x="361.749px 364.767px 370.166px 377.336px 382.136px 387.535px 392.934px 398.333px 403.732px " y="117.766px 117.766px 117.766px 117.766px 117.766px 117.766px 117.766px 117.766px 117.766px ">(§CTop4§)</tspan></text>
                    <circle cx="229.681" cy="115.005" r="4.74" style="fill:rgb(213,179,0);stroke:black;stroke-width:0.67px;stroke-linejoin:round;"/>
                </g>
                <g id="Top5">
                    <path d="M234.422,135.138l57.444,-0.265" style="fill:none;stroke:rgb(213,179,0);stroke-width:2px;stroke-linejoin:round;"/>
                    <text x="194.897px" y="137.779px" style="font-family:'ArialMT', 'Arial', sans-serif;font-size:10.667px;">T<tspan x="199.697px 205.096px 210.495px 212.925px " y="137.779px 137.779px 137.779px 137.779px ">op 5</tspan></text>
                    <text x="295.678px" y="137.766px" style="font-family:'ArialMT', 'Arial', sans-serif;font-size:10.667px;"><tspan x="295.678px 301.077px 307.059px 311.859px 317.258px 322.657px 328.056px 333.455px 335.885px 339.617px " y="137.766px 137.766px 137.766px 137.766px 137.766px 137.766px 137.766px 137.766px 137.766px 137.766px ">§TTop5§ °C</tspan></text>
                    <text x="361.749px" y="137.766px" style="font-family:'ArialMT', 'Arial', sans-serif;font-size:10.667px;"><tspan x="361.749px 364.767px 370.166px 377.336px 382.136px 387.535px 392.934px 398.333px 403.732px " y="137.766px 137.766px 137.766px 137.766px 137.766px 137.766px 137.766px 137.766px 137.766px ">(§CTop5§)</tspan></text>
                    <circle cx="229.681" cy="135.005" r="4.74" style="fill:rgb(213,179,0);stroke:black;stroke-width:0.67px;stroke-linejoin:round;"/>
                </g>
                <g id="Top6">
                    <path d="M234.422,155.138l57.444,-0.265" style="fill:none;stroke:rgb(213,179,0);stroke-width:2px;stroke-linejoin:round;"/>
                    <text x="194.897px" y="157.779px" style="font-family:'ArialMT', 'Arial', sans-serif;font-size:10.667px;">T<tspan x="199.697px 205.096px 210.495px 212.925px " y="157.779px 157.779px 157.779px 157.779px ">op 6</tspan></text>
                    <text x="295.678px" y="157.766px" style="font-family:'ArialMT', 'Arial', sans-serif;font-size:10.667px;"><tspan x="295.678px 301.077px 307.059px 311.859px 317.258px 322.657px 328.056px 333.455px 335.885px 339.617px " y="157.766px 157.766px 157.766px 157.766px 157.766px 157.766px 157.766px 157.766px 157.766px 157.766px ">§TTop6§ °C</tspan></text>
                    <text x="361.749px" y="157.766px" style="font-family:'ArialMT', 'Arial', sans-serif;font-size:10.667px;"><tspan x="361.749px 364.767px 370.166px 377.336px 382.136px 387.535px 392.934px 398.333px 403.732px " y="157.766px 157.766px 157.766px 157.766px 157.766px 157.766px 157.766px 157.766px 157.766px ">(§CTop6§)</tspan></text>
                    <circle cx="229.681" cy="155.005" r="4.74" style="fill:rgb(213,179,0);stroke:black;stroke-width:0.67px;stroke-linejoin:round;"/>
                </g>
            </g>
            <path d="M239.867,29.929l51.999,-0.194" style="fill:none;stroke:rgb(185,8,8);stroke-width:2px;stroke-linejoin:round;"/>
            <rect x="199.867" y="20" width="40" height="20" style="fill:rgb(185,8,8);stroke:black;stroke-width:1.33px;stroke-linejoin:round;"/>
            <text x="295.678px" y="32.76px" style="font-family:'ArialMT', 'Arial', sans-serif;font-size:10.667px;"><tspan x="295.678px 301.077px 307.658px 314.239px 319.638px 325.037px 328.056px 332.856px 338.255px 343.654px 346.084px " y="32.76px 32.76px 32.76px 32.76px 32.76px 32.76px 32.76px 32.76px 32.76px 32.76px 32.76px ">§PSource§ W</tspan></text>
        </g>
        <g>
            <path d="M269.867,170l10,-0l26.615,15.005l10.018,0" style="fill:none;stroke:rgb(109,156,120);stroke-width:2px;stroke-linejoin:round;"/>
            <path d="M269.867,310l10,0l26.615,-15.005l10.018,-0" style="fill:none;stroke:rgb(109,156,120);stroke-width:2px;stroke-linejoin:round;"/>
            <path d="M269.867,240l46.633,0" style="fill:none;stroke:rgb(109,156,120);stroke-width:2px;stroke-linejoin:round;"/>
            <rect x="169.867" y="170" width="100" height="140" style="fill:rgb(109,156,120);stroke:black;stroke-width:1.33px;"/>
            <text x="321.078px" y="187.766px" style="font-family:'ArialMT', 'Arial', sans-serif;font-size:10.667px;"><tspan x="321.078px 326.477px 332.459px 337.259px 342.658px 348.057px 354.639px 360.037px 368.39px 373.789px 375.625px 381.024px 386.423px 388.853px 392.585px " y="187.766px 187.766px 187.766px 187.766px 187.766px 187.766px 187.766px 187.766px 187.766px 187.766px 187.766px 187.766px 187.766px 187.766px 187.766px ">§TTopSample§ °C</tspan></text>
            <text x="322.266px" y="297.755px" style="font-family:'ArialMT', 'Arial', sans-serif;font-size:10.667px;"><tspan x="322.266px 327.665px 333.647px 340.228px 345.627px 348.057px 354.639px 360.037px 368.39px 373.789px 375.625px 381.024px 386.423px 388.853px 392.585px " y="297.755px 297.755px 297.755px 297.755px 297.755px 297.755px 297.755px 297.755px 297.755px 297.755px 297.755px 297.755px 297.755px 297.755px 297.755px ">§TBotSample§ °C</tspan></text>
            <text x="321.089px" y="242.76px" style="font-family:'ArialMT', 'Arial', sans-serif;font-size:10.667px;"><tspan x="321.089px 326.487px 332.47px 340.822px 342.658px 348.057px 354.639px 360.037px 368.39px 373.789px 375.625px 381.024px 386.423px 388.853px 392.585px " y="242.76px 242.76px 242.76px 242.76px 242.76px 242.76px 242.76px 242.76px 242.76px 242.76px 242.76px 242.76px 242.76px 242.76px 242.76px ">§TMidSample§ °C</tspan></text>
        </g>
        <g>
            <path d="M129.867,50l20,-0l-0,70l10,-0l-20,40l-20,-40l10,-0l-0,-70Z" style="fill:rgb(158,158,158);"/>
            <path d="M129.867,50l20,-0l-0,70l10,-0l-20,40l-20,-40l10,-0l-0,-70Zm0.666,0.667l18.667,-0c0,-0 0,70 0,70l9.588,-0c-0,-0 -18.921,37.842 -18.921,37.842c-0,0 -18.922,-37.842 -18.922,-37.842c0,-0 9.588,-0 9.588,-0l0,-70Z"/>
            <text x="39.578px" y="67.766px" style="font-family:'ArialMT', 'Arial', sans-serif;font-size:10.667px;"><tspan x="39.578px 44.977px 52.741px 55.759px 61.158px 66.557px 71.357px 76.756px 82.155px 87.554px 89.984px 93.717px 100.886px 103.317px 111.669px " y="67.766px 67.766px 67.766px 67.766px 67.766px 67.766px 67.766px 67.766px 67.766px 67.766px 67.766px 67.766px 67.766px 67.766px 67.766px ">§GradTop§ °C/mm</tspan></text>
            <text x="75.079px" y="87.766px" style="font-family:'ArialMT', 'Arial', sans-serif;font-size:10.667px;"><tspan x="75.079px 80.478px 87.059px 91.859px 97.258px 102.657px 108.056px 110.486px " y="87.766px 87.766px 87.766px 87.766px 87.766px 87.766px 87.766px 87.766px ">§PTop§ W</tspan></text>
        </g>
        <g>
            <path d="M129.867,320l20,0l-0,70l10,0l-20,40l-20,-40l10,0l-0,-70Z" style="fill:rgb(158,158,158);"/>
            <path d="M129.867,320l20,0l-0,70l10,-0l-20,40l-20,-40l10,-0l-0,-70Zm0.666,0.667l18.667,-0c0,-0 0,70 0,70l9.588,-0c-0,-0 -18.921,37.842 -18.921,37.842c-0,0 -18.922,-37.842 -18.922,-37.842c0,-0 9.588,-0 9.588,-0l0,-70Z"/>
            <text x="40.766px" y="337.766px" style="font-family:'ArialMT', 'Arial', sans-serif;font-size:10.667px;"><tspan x="40.766px 46.165px 53.928px 56.947px 62.346px 67.745px 74.326px 79.725px 82.155px 87.554px 89.984px 93.717px 100.886px 103.317px 111.669px " y="337.766px 337.766px 337.766px 337.766px 337.766px 337.766px 337.766px 337.766px 337.766px 337.766px 337.766px 337.766px 337.766px 337.766px 337.766px ">§GradBot§ °C/mm</tspan></text>
            <text x="76.267px" y="357.766px" style="font-family:'ArialMT', 'Arial', sans-serif;font-size:10.667px;"><tspan x="76.267px 81.666px 88.247px 94.828px 100.227px 102.657px 108.056px 110.486px " y="357.766px 357.766px 357.766px 357.766px 357.766px 357.766px 357.766px 357.766px ">§PBot§ W</tspan></text>
        </g>
    </g>
</svg>
